ply
format ascii 1.0
element vertex 120
property float x
property float y
property float z
end_header
0.27885 -0.94998 0.00275
-0.55358 0.47294 0.00677
0.78436 -0.82612 0.00422
-0.94041 -0.56272 0.00505
-0.94693 -0.60232 0.00650
0.08988 -0.55912 0.00589
0.61886 -0.98700 0.00806
0.39628 -0.31950 0.00155
0.91443 -0.32681 0.00093
-0.80657 0.69499 0.00604
0.61426 0.45946 0.00536
0.94623 -0.24293 0.00552
0.65881 0.23704 0.00862
0.15470 0.40914 0.00046
-0.54420 -0.42122 0.00080
-0.53442 -0.79800 0.00278
0.27137 -0.27034 0.00370
-0.58099 -0.46604 0.00937
0.29607 0.21826 0.00171
0.45825 -0.67320 0.00379
0.97905 0.28000 0.00557
0.36923 0.68570 0.00776
-0.54190 -0.93580 0.00315
-0.46452 -0.57803 0.00943
0.75274 -0.37064 0.00655
-0.20874 0.82910 0.00459
-0.47024 -0.50674 0.00561
-0.47452 0.16917 0.00898
-0.20120 -0.56136 0.00998
0.01905 -0.81818 0.00047
-0.78070 0.25489 0.00792
-0.15568 -0.87294 0.00382
0.99224 0.05823 0.00971
0.72156 -0.97704 0.00721
0.36342 0.07394 0.00267
0.28192 -0.77690 0.00435
-0.09255 0.90763 0.00876
-0.47322 0.00117 0.00179
0.82526 0.74104 0.00298
0.27790 0.21794 0.00153
0.52502 0.07876 0.00779
0.06071 -0.99886 0.00324
-0.96105 0.85820 0.00879
0.66333 -0.38497 0.00058
0.75602 0.89390 0.00086
-0.02802 -0.86157 0.00761
0.53167 -0.74322 0.00475
0.09961 -0.46989 0.00872
-0.15372 -0.57640 0.00539
0.45986 -0.59770 0.00312
0.99030 0.29976 0.00438
0.03515 -0.75799 0.00225
-0.32383 0.17662 0.00230
-0.55957 -0.85801 0.00631
-0.54212 0.81084 0.00860
-0.85829 -0.52399 0.00669
-0.57153 -0.73538 0.00936
0.14209 -0.05466 0.00785
0.61499 -0.61918 0.00097
-0.13790 -0.15284 0.00467
0.45815 0.34673 0.00984
-0.80316 -0.19476 0.00339
0.72335 -0.50269 0.00190
-0.10277 -0.15624 0.00279
-0.50039 0.84653 0.00443
0.72270 0.10065 0.00051
0.99856 0.67206 0.00969
0.85273 0.69739 0.00166
-0.02872 -0.57251 0.00401
-0.88273 -0.24205 0.00985
-0.46959 0.56814 0.00455
-0.15399 0.91464 0.00995
0.11154 0.43682 0.00155
-0.40658 0.93742 0.00579
0.08439 0.49595 0.00057
0.16836 0.00570 0.00853
-0.68513 0.92156 0.00080
-0.62835 0.19007 0.00675
-0.52959 -0.76023 0.00890
-0.50757 0.18904 0.00619
-0.16155 0.16734 0.00523
0.86941 -0.59148 0.00716
-0.52263 -0.20843 0.00672
-0.40001 -0.36765 0.00752
-0.85491 -0.08343 0.00998
0.99219 -0.85348 0.00213
-0.46960 0.86652 0.00881
0.75854 -0.26095 0.00158
0.66749 0.40708 0.00612
0.97447 0.30795 0.00008
0.63421 -0.40124 0.00663
0.87786 -0.73142 0.00115
-0.78593 0.10645 0.00272
0.20966 0.43522 0.00204
0.26848 -0.47203 0.00489
0.81067 0.69221 0.00092
-0.15285 -0.44664 0.00004
0.54224 0.27423 0.00262
0.48246 0.10336 0.00428
-0.98066 -0.84951 0.00883
0.80786 0.09118 0.00835
0.16502 -0.70381 0.00127
-0.38348 0.79796 0.00796
0.72141 0.79785 0.00210
-0.50094 -0.79441 0.00780
0.76827 -0.18725 0.00621
-0.69089 0.85976 0.00865
0.95241 0.62154 0.00881
-0.95043 0.47313 0.00332
0.86163 0.60447 0.00864
0.62150 -0.46639 0.00787
-0.78381 0.74433 0.00859
-0.55513 0.63317 0.00460
-0.38962 0.59069 0.00228
-0.95267 -0.61374 0.00328
0.72871 0.93378 0.00279
0.28296 -0.20064 0.00981
0.07243 0.87847 0.00115
0.94080 -0.64286 0.00963
-0.46907 -0.78319 0.00435
