ply
format ascii 1.0
element vertex 2500
property float x
property float y
property float z
end_header
7.501146 4.915531 0.041154
10.766566 5.311566 0.020903
9.308228 4.911215 0.033545
2.702486 2.049935 0.019988
3.601995 3.010368 0.084131
10.482641 6.753594 0.024109
0.063184 7.568192 0.062461
9.854741 1.449612 -0.282785
9.564833 0.084607 -0.102829
5.615219 7.691685 -0.023043
3.636389 6.876869 0.031237
3.341107 4.860751 0.062960
3.058435 6.535341 0.120727
5.340916 4.754080 0.091629
6.054579 7.238498 0.022804
6.641968 1.946764 0.025153
11.946003 3.553051 0.090838
9.511943 5.364622 -0.079803
7.466151 1.725046 0.032085
11.867522 5.718547 0.075270
2.583704 2.098991 0.070628
1.922544 5.680175 -0.128710
7.350475 6.433728 0.039996
0.527304 3.393417 -0.020520
0.428163 7.920891 -0.000527
6.178666 5.050944 0.115135
5.594472 6.052661 0.076847
11.006013 0.164761 -0.068740
7.550715 0.902493 0.077411
6.169412 5.691894 0.066021
5.962481 7.544924 0.042734
2.970179 5.025831 0.070463
0.141528 7.302750 0.023078
2.308826 0.473403 0.012725
8.304385 7.133197 -0.045687
2.407281 7.018516 0.043056
4.434436 5.030943 -0.027366
0.044811 3.435785 -0.099815
9.960573 5.639584 0.066753
1.853533 1.951337 0.014591
3.211192 5.341169 0.046044
10.563986 5.554073 -0.054995
6.117490 4.319219 0.033876
10.165803 2.080598 -0.038106
7.676606 0.016855 0.008755
8.901251 1.566226 -0.084734
1.097947 6.670204 0.095822
6.493726 1.698195 -0.029485
6.093267 0.594647 0.115167
10.456073 1.973078 -0.196647
4.335169 4.153382 -0.035587
7.178209 4.690190 0.092721
0.711020 7.017177 0.002177
4.651582 6.838051 -0.005767
3.876436 7.749920 0.080004
1.802397 7.074146 -0.050637
9.796057 3.602061 -0.028901
4.553354 1.135032 -0.128773
11.744975 7.646243 -0.086184
7.079900 1.830098 -0.036752
7.260675 4.976958 0.054924
7.655959 2.115734 0.074018
8.117403 6.534600 -0.073622
1.809456 1.606193 0.161824
5.283762 3.366276 -0.004547
2.874768 1.757599 -0.118838
4.829980 6.884526 -0.143603
1.160449 4.955383 0.145501
11.613937 5.046568 -0.056891
2.580048 2.515978 -0.008869
8.061182 1.411934 -0.063971
3.605041 6.858700 -0.037791
10.488924 6.116801 0.064709
7.946577 5.875563 -0.008562
1.579390 7.977111 0.172745
10.140892 4.476260 -0.055541
11.339378 1.428454 -0.237245
10.847001 4.876326 0.021004
6.836630 2.298374 -0.009666
1.745519 4.103512 0.013176
2.309562 3.674587 0.165278
11.134868 4.508220 -0.069411
6.627918 7.371010 0.116510
2.166630 6.481606 0.037709
10.608683 3.321196 -0.104761
7.698860 6.538661 0.043686
6.836331 6.884176 -0.028259
4.515454 6.191818 0.146885
4.931463 4.411109 0.122809
2.873871 7.194763 0.050648
0.456687 3.935687 0.057875
10.514626 0.847643 0.001447
5.612763 2.176999 0.017008
6.571622 5.260104 0.096149
3.865960 3.033011 0.031802
9.015899 3.382555 0.026886
0.302362 3.217671 -0.069995
4.466223 1.536293 0.057004
0.364204 0.748256 0.040546
1.474705 0.392647 -0.035263
11.605779 5.380060 -0.083023
7.893129 2.592880 -0.043266
5.138643 3.654860 0.102694
6.284881 7.481547 -0.027985
10.473711 5.013322 -0.007980
4.130528 6.485232 0.172136
7.083492 6.098632 0.044058
8.204212 7.629682 -0.135533
4.264965 0.534565 0.060025
6.229182 3.073134 0.113984
9.182969 7.596896 -0.047750
10.910152 3.715466 0.042261
1.812747 7.582401 0.083151
11.201033 1.478891 -0.014403
0.062146 0.481966 -0.019068
9.035730 7.163731 -0.063133
9.726322 3.290025 -0.053885
1.641169 4.066201 0.036233
5.026844 7.490206 0.087792
9.783075 1.755435 -0.000486
0.171254 7.745576 -0.019884
7.541543 3.172400 0.012261
9.516284 1.979346 0.001000
6.156043 1.869634 -0.097717
8.710193 4.147591 -0.077354
2.717082 3.735728 -0.018737
2.382254 7.088804 0.025392
4.357523 0.406417 0.028195
2.152872 0.351807 0.018305
4.152737 1.222278 -0.018989
11.377489 4.845315 0.005530
6.879993 6.250757 0.042305
4.080817 3.838749 -0.080403
3.258295 4.910045 0.050423
11.424474 5.140427 -0.138441
5.333739 0.154360 0.179652
11.764737 1.970212 -0.085252
6.186272 7.982065 0.000647
6.253994 2.646301 0.037804
10.758486 7.573016 -0.060626
8.913209 3.938209 -0.023957
6.967834 1.780451 0.142426
5.119794 0.019322 0.063800
10.538254 1.740404 0.024165
4.939754 2.572025 0.137462
11.073115 3.514419 -0.124638
0.824584 3.577373 0.152687
5.159962 4.386756 0.100468
6.234178 3.793189 0.108129
11.411258 0.262910 -0.117131
3.011991 2.135738 0.113480
9.672470 7.696152 0.001243
8.117654 0.219319 -0.046808
8.605031 5.872467 0.169269
7.555466 3.810981 0.052746
11.658729 5.655382 -0.067634
3.992178 2.660011 0.066970
4.779307 2.961104 0.121420
2.434941 4.134239 0.133266
0.608449 7.277267 0.060082
2.554898 2.627107 0.141546
10.985573 0.686911 0.071643
10.082026 0.306053 -0.136141
1.348869 7.052545 -0.011625
7.245348 2.509885 -0.061560
5.750358 0.956206 0.046620
7.136218 4.771381 0.131186
7.911300 6.759163 0.052682
3.679914 4.796379 -0.032316
11.536210 1.213693 -0.071662
5.590080 3.245860 0.123217
7.537210 2.131914 -0.034601
7.622714 0.132576 -0.001518
2.206673 7.725483 0.064578
0.742385 3.673735 -0.129490
4.938202 1.077775 0.109933
9.168361 7.079245 0.003892
9.782661 7.881039 0.012223
8.759871 6.528046 -0.094417
1.358459 2.029167 -0.033988
10.960258 1.524343 -0.093476
9.624439 4.200898 -0.010878
10.532296 4.667976 -0.036664
6.279650 7.027212 0.041272
10.987625 7.737944 0.097434
0.559827 7.283096 0.117142
0.363466 2.736634 -0.048678
0.242587 4.684794 -0.045836
3.033224 0.990851 0.185697
2.982837 4.151012 0.022719
2.250040 0.566160 0.151074
6.804670 0.890374 0.149865
0.467830 0.975541 -0.032486
7.084654 2.411459 -0.004814
1.992134 2.477437 0.043985
8.134485 5.640323 -0.073099
0.252904 0.608270 -0.071580
3.726842 0.889153 0.019344
11.260095 5.250565 0.020897
6.460757 5.382312 -0.007787
9.739049 5.683495 -0.049135
7.896313 5.761114 -0.036466
7.329009 5.303393 -0.097165
2.295032 4.420749 0.160070
6.892737 5.930897 -0.167024
0.476237 0.652223 -0.041259
9.619973 1.694490 0.013843
11.520851 5.931627 -0.159797
10.248109 1.540417 0.009088
0.608516 4.246019 0.113837
4.063921 2.082411 -0.017255
3.816038 3.450200 0.068232
1.352604 6.673423 -0.061501
7.519342 5.285120 0.048810
9.569498 3.561509 -0.023040
3.764658 2.188238 0.068703
10.353711 6.440147 0.068785
9.565523 5.256180 0.007634
1.549655 3.519591 0.138280
9.202310 6.954179 0.026608
10.591449 5.539684 -0.138864
2.367391 7.844618 0.063047
6.883694 5.315091 0.059633
7.665000 7.199211 -0.110322
7.312011 4.403274 0.118986
1.154948 5.680010 0.029277
7.934298 6.739453 0.029389
7.583457 0.723657 -0.064773
9.886626 3.793786 -0.028967
9.642152 4.844821 -0.007257
3.926018 0.462268 0.025445
8.664568 6.313793 -0.007934
10.407281 5.724368 -0.210665
10.715373 7.489887 0.064970
1.938148 2.976296 -0.052608
0.320428 3.753251 -0.166660
7.809689 7.295156 -0.074422
2.576115 3.291926 -0.022397
6.764517 6.674814 0.066114
11.337654 3.371271 -0.120815
4.551835 2.702065 0.072686
3.033295 2.218033 -0.028431
5.478121 1.707952 0.218728
7.886927 3.451447 0.044444
1.213188 1.292650 0.181290
4.567017 6.623883 -0.031332
1.604654 7.795443 0.084482
7.949355 0.779517 -0.076963
9.966630 0.438554 0.010305
4.522245 0.029901 0.104245
4.460687 7.456506 -0.077296
6.474260 0.590435 -0.063330
2.580693 5.441440 -0.049025
2.968915 2.430693 -0.072582
3.958227 1.585766 -0.007170
5.489108 1.970687 -0.034973
0.978378 5.517292 -0.095275
9.032786 0.143851 -0.013646
6.948655 6.918539 0.062579
3.596326 4.542414 -0.054418
0.930559 1.884745 -0.025207
9.158171 1.666709 -0.023137
1.572948 5.237860 0.012000
1.598480 5.034646 -0.025122
1.568211 2.544926 0.095243
0.975148 2.672157 0.087820
10.876708 3.707527 0.008642
3.230932 7.283776 0.032416
3.676927 4.306463 0.209654
9.993532 6.720561 0.102461
7.439082 5.126813 -0.022938
2.245721 4.496904 0.030439
5.217761 3.917279 0.139477
10.607070 5.445029 -0.107636
4.504488 3.932224 0.081450
8.530579 5.807808 -0.008796
1.161693 1.456506 -0.032992
8.727897 2.578519 -0.034803
9.317682 6.985428 -0.152529
9.909201 3.161810 -0.079254
8.090412 6.744580 -0.163547
4.448794 7.503646 0.232109
0.770544 4.627748 0.136396
6.225315 0.814912 0.129360
9.089519 6.055456 0.001174
2.290058 5.326904 0.120252
3.194847 2.326305 0.150332
6.433441 6.903829 0.108843
8.979979 3.861772 0.052338
10.759041 0.456004 -0.118244
1.508898 0.543809 0.063253
2.211243 1.826665 -0.003526
9.594444 4.878662 -0.125976
7.734259 6.521436 -0.088410
8.651674 0.792329 0.019020
11.961254 0.178464 0.034832
11.270160 4.980023 -0.157948
10.116301 3.275714 0.100735
9.325390 3.533032 0.090171
4.740231 6.565627 0.017301
7.694749 7.352132 -0.033518
2.213348 7.737919 0.033186
9.113934 6.233260 0.054659
9.092288 0.026118 -0.054132
8.655543 1.204049 -0.104012
5.337588 4.698201 0.069958
4.538164 7.642282 -0.116507
5.037251 0.651573 0.056582
0.400071 4.119482 0.100831
10.131841 3.171805 -0.014948
6.508439 3.254657 0.088152
4.650224 2.148460 0.087496
6.576345 2.166049 0.082746
8.659683 1.906913 -0.004180
4.577530 0.825289 -0.018014
9.967688 4.432561 -0.055362
11.033560 3.567581 -0.053643
4.649188 5.703481 0.148637
1.653794 5.119490 0.160807
9.124480 7.622385 0.009319
11.915386 2.716956 -0.110148
1.775858 7.059929 -0.025770
8.552108 3.078150 -0.028782
9.903881 5.285499 0.074548
11.046863 6.439828 -0.021094
1.480577 3.174237 0.023484
1.101719 3.569262 -0.039873
11.854459 5.050019 0.020612
1.401078 0.886249 0.049727
2.121691 4.254087 0.033458
6.899435 0.759531 0.026904
5.355276 1.798960 0.176981
9.004706 4.984465 -0.035041
2.286687 7.777313 0.174695
10.973133 7.994896 0.051971
2.606338 2.085491 0.047372
9.229332 1.170544 0.044570
0.811242 4.148715 0.006039
5.680831 3.530999 -0.028078
0.390700 3.035476 -0.013650
3.765728 6.147764 -0.022683
3.746768 5.677513 0.090786
8.636981 4.494610 -0.014227
5.460210 4.971673 0.086314
0.681292 4.654834 0.079593
11.944340 5.414996 -0.299513
10.664392 7.422454 -0.020175
10.995887 7.573346 -0.191689
2.958906 7.835964 0.059628
4.729323 6.877756 -0.022744
2.726154 0.837935 0.052681
1.498877 3.613384 0.137450
0.396287 6.252653 -0.128731
6.040037 2.354667 0.048431
1.477604 4.853787 0.021587
2.115652 0.441928 -0.113937
10.325708 1.629068 0.010073
5.810913 3.201764 0.039200
2.204442 0.561547 -0.002106
8.038375 3.394620 -0.061427
3.190379 1.840890 0.304849
6.323246 6.894197 -0.002772
3.395434 2.550496 -0.095152
6.193934 3.045808 -0.043658
7.542403 6.416235 -0.023114
6.434497 4.477344 -0.003863
4.747249 0.400696 0.041025
9.489766 1.740619 -0.114189
10.481249 4.886974 -0.000070
2.152455 1.594917 -0.000778
1.635705 1.986500 -0.078429
1.358300 4.983476 -0.039398
11.755161 3.956681 -0.080771
11.299096 2.152809 0.018816
2.768006 4.473598 0.083485
11.638891 5.069983 -0.076961
2.493812 0.314980 0.043582
6.077712 2.190775 0.049823
5.968621 2.461684 0.197331
10.979471 7.029767 -0.096862
0.486346 0.410589 0.047031
3.784210 2.777074 0.108028
7.199696 1.556403 -0.063308
0.796779 5.561124 0.030805
2.838607 6.489874 0.058411
5.580761 0.459498 0.001869
10.570284 6.906416 0.001156
9.131514 5.567684 0.057826
9.947766 1.735831 0.053269
9.132837 7.326662 -0.039821
8.492649 2.344339 0.002555
10.196320 6.307721 0.147766
8.177720 0.599677 -0.094748
8.828197 3.648392 -0.001245
3.619734 4.046042 0.120821
2.011689 7.172685 0.048040
9.078300 6.692205 0.028958
1.990048 4.371074 0.049544
11.033470 0.412289 0.012511
7.159714 3.439820 0.116313
3.953209 3.002341 0.032285
11.239718 7.963955 -0.033032
1.861563 5.445751 0.029467
6.173596 3.240448 -0.001157
1.098649 2.918529 0.019702
11.585133 6.140635 -0.140378
6.904513 0.766238 0.078098
9.643999 6.536143 0.103377
3.383069 5.367204 0.185182
9.621560 3.482385 0.069589
8.434104 5.682644 -0.088629
7.724178 3.182516 0.124177
11.406754 1.145383 -0.106674
5.201896 3.335519 0.039393
4.981061 0.410934 0.193315
8.305454 0.696919 -0.094733
10.020664 3.512145 0.029195
4.020912 6.600596 0.072466
8.035885 1.629373 -0.015802
2.508449 4.006534 -0.027919
6.620400 7.831588 0.057483
9.230060 6.619612 -0.063256
0.783779 7.215400 0.099041
8.734105 5.399744 0.080702
0.185190 4.712576 -0.106644
11.500200 4.654753 -0.090106
5.624038 4.809887 0.013389
4.908850 3.719797 -0.048344
8.645336 2.885006 -0.104996
6.279586 1.909511 0.036541
8.770186 0.522445 -0.034561
1.017095 2.953065 -0.112363
6.753502 6.159200 -0.021744
6.697304 4.421490 0.063829
11.185367 1.311902 -0.145088
0.475267 6.513624 -0.064440
5.433836 0.331708 0.168203
7.572875 7.449018 0.110988
6.608963 5.214441 -0.105799
0.889933 4.448887 -0.090653
7.118741 3.300867 0.044674
2.666363 6.600248 -0.051543
2.346590 0.054258 0.020115
10.544291 0.127307 -0.080109
2.374105 4.162518 0.085473
5.451489 2.376558 -0.161310
9.003443 3.212414 -0.198388
8.487785 4.292787 -0.110636
6.641508 0.350188 0.104420
9.684549 7.864488 -0.045773
5.589794 5.421128 -0.097316
7.444625 0.791146 0.047590
9.827000 5.908882 0.021125
8.137100 4.263206 -0.025319
7.701940 5.495574 -0.023405
4.873545 5.901672 0.081470
6.699881 7.930926 0.119028
4.752992 0.947201 0.059490
8.931507 7.969735 0.021758
4.565162 3.814865 0.044521
5.599454 1.607539 0.008720
9.065485 2.988873 -0.096567
6.043870 2.914548 0.053625
4.056391 7.162817 0.025917
9.921827 4.194314 -0.056291
4.571551 0.533734 0.122725
10.136749 5.719003 -0.000530
9.422885 3.982196 0.040249
5.367466 6.516831 -0.084125
8.554691 0.371663 0.030839
0.412676 6.920034 -0.038973
4.677581 7.142894 -0.016896
10.324004 0.065875 -0.109919
6.954472 3.815365 0.114516
6.693910 0.972614 0.088607
7.976867 4.235359 -0.059809
8.132060 0.713547 -0.096556
7.003179 7.096358 0.017788
5.047552 1.469140 0.008295
2.201804 5.345568 0.171325
3.511704 5.228586 -0.067591
3.515066 2.566547 -0.097066
5.168939 1.715760 0.023496
11.988705 7.321923 -0.048968
4.230623 0.318372 0.060241
5.368551 2.032967 0.102189
4.459531 2.613714 0.214737
6.977133 4.673361 -0.010208
11.374783 2.953528 -0.092891
10.668875 0.890907 -0.185873
4.525665 4.562684 0.068046
3.202814 5.792680 0.116190
10.612783 5.638263 -0.065475
5.926000 3.916712 0.129299
8.226494 2.454848 -0.005000
0.879497 0.082121 0.138418
10.398692 4.262390 -0.015899
3.755582 5.028340 -0.034690
5.934323 3.530064 -0.016216
2.376253 7.673719 -0.082014
5.042911 1.617880 -0.093864
9.936587 6.512843 -0.015646
9.930951 5.750234 0.032645
5.684064 7.194605 0.194492
9.214928 7.396429 -0.030308
5.496802 1.893750 0.021514
4.480276 7.374472 -0.039942
6.550668 3.225826 0.103887
2.416089 5.432640 0.072277
3.798738 7.623171 0.002324
8.478345 4.762865 0.042725
9.246168 4.663430 0.018481
0.680498 0.566847 -0.136154
8.793914 4.773204 0.041057
9.809159 1.928925 -0.024349
5.342323 3.106051 0.010881
0.749447 3.022856 -0.018601
8.194959 7.786821 0.133074
2.953964 5.102363 0.169137
7.720288 5.799722 0.148748
4.519470 1.382120 -0.043291
7.645962 2.434277 -0.048204
3.097619 7.019711 0.119712
5.718444 0.961921 -0.058975
6.296097 7.624942 -0.028436
7.572158 3.419257 -0.138716
2.438014 3.119577 0.189638
11.544613 4.117133 0.035238
3.469657 3.546046 0.085847
3.672242 3.764259 0.067278
3.075749 3.391887 0.013759
0.809715 5.614089 -0.015918
5.075075 2.210348 0.094075
9.262036 1.331949 -0.083638
8.514803 3.476298 0.085129
2.346869 0.706395 0.000935
1.643183 3.579014 -0.039331
3.857135 3.954701 0.153821
9.219062 6.274703 -0.037483
5.856938 0.872361 0.080217
11.078210 3.175019 -0.081232
7.876605 6.244448 -0.180461
7.450881 2.706043 0.051803
9.212294 6.689765 -0.133584
9.003099 5.747135 0.064397
4.126058 0.333772 -0.074224
3.084101 3.082229 -0.102004
5.251457 6.130941 0.067757
5.870966 4.212316 0.069652
1.700673 5.383034 0.039985
5.295986 7.920215 -0.054397
7.677879 5.402041 0.074602
1.628574 4.368392 -0.086859
1.656455 6.768928 -0.006383
2.084657 3.441684 -0.026024
3.399977 0.083321 0.018679
11.540511 2.179801 0.018454
0.309496 4.757814 -0.044552
2.204869 7.585982 0.083750
1.980574 4.857084 0.091128
5.692176 2.269655 -0.098837
0.180873 7.945662 -0.089712
5.498079 3.201252 0.009779
1.955069 1.822429 -0.012134
3.235683 4.423357 0.072714
9.509287 2.752442 -0.185272
2.208807 0.892513 0.096296
7.405546 5.702257 0.068487
4.875747 5.531686 0.032983
5.011147 7.777493 -0.065273
9.802145 1.094737 -0.034691
1.930979 7.284324 -0.008107
11.085723 6.377468 -0.002748
10.721890 2.024725 -0.052414
8.019864 3.834220 0.054943
0.593368 5.041153 -0.022910
7.959702 2.519573 0.113295
7.204172 0.860423 -0.171531
9.266471 6.696649 -0.108065
2.565979 1.317564 0.082037
11.440272 3.925757 -0.170410
10.634366 3.501609 0.014042
1.372286 7.224225 -0.071250
3.782422 4.471432 0.057372
0.389330 3.395236 -0.065425
9.971367 7.814454 -0.072760
10.981137 2.820360 -0.033493
11.877711 5.811913 -0.058341
7.343100 1.871656 -0.020359
7.991827 6.057750 0.169494
8.140866 6.010015 -0.005048
6.841781 6.625241 -0.057901
11.429075 3.877822 0.024703
7.294335 1.777230 0.076753
4.028712 5.055875 0.147793
6.154527 7.281795 0.174412
0.223954 2.478562 -0.070674
8.689516 0.161285 0.068360
8.327053 1.479977 0.081763
5.052614 7.463339 0.045046
10.217773 0.048455 -0.020927
9.066313 0.430885 -0.263530
4.040215 0.786659 0.004033
0.929976 7.134723 0.161211
1.586676 3.066531 -0.113302
2.211267 5.532888 -0.004175
3.647016 5.647001 0.072722
5.370189 3.472034 0.087943
11.135959 5.859062 0.082178
3.341015 3.689807 -0.092393
10.783028 4.334755 -0.042648
8.165546 2.454514 0.062559
10.241915 0.015525 -0.145913
4.839041 4.746465 0.043534
0.039321 2.125048 0.151570
9.443608 2.201309 0.075627
2.945710 7.030386 0.089357
1.709762 2.894804 -0.177535
9.593899 0.818830 -0.042483
8.235944 5.042959 0.023304
2.548982 4.307524 0.017917
3.210982 0.460553 0.042728
11.270638 2.791289 0.197712
3.222456 4.889662 0.030870
8.428871 2.237754 -0.088967
1.554639 7.889221 0.048557
9.780430 6.391740 -0.060081
1.411080 4.033696 0.001967
6.192494 7.324235 0.023869
0.422612 0.277926 0.070335
6.600943 1.796314 0.043025
10.159459 7.318661 -0.135962
1.012782 4.069741 0.009090
3.291079 1.361657 0.086347
9.176317 4.560723 -0.062649
7.297180 5.841847 0.102960
3.753563 4.827328 0.112050
7.546847 0.367035 -0.073134
5.456524 0.293837 0.066514
10.348275 3.256698 0.116690
3.515279 0.130087 0.174138
9.092767 0.672641 -0.028276
7.628090 5.140516 0.076321
8.885144 3.507609 -0.073952
4.539139 0.684156 -0.067338
8.699052 7.011635 0.027764
8.381113 2.947895 0.009258
4.649867 7.065373 0.089056
0.317427 4.873916 0.004356
11.554960 4.967742 -0.023718
8.563205 3.392245 -0.055028
2.456864 5.375957 0.079462
8.769687 1.948261 0.048739
3.344200 2.059417 0.043975
5.631425 6.999269 0.103954
10.318658 1.629898 -0.183363
5.376865 3.088383 -0.021073
3.456079 5.957759 0.164677
3.665893 2.640012 0.190661
0.924207 2.927841 0.038114
2.634067 7.273419 0.035193
3.253275 1.651753 -0.053242
2.075629 1.929432 0.065991
0.756789 7.093851 0.077181
5.589470 2.201881 -0.079197
2.572754 2.644838 0.087554
8.865246 7.055911 0.019575
11.070333 2.569060 -0.012724
3.275816 7.975826 -0.041889
6.866979 6.570247 0.062579
6.080708 6.773362 -0.087270
0.901302 1.805418 0.136726
1.498493 1.736515 0.039022
10.617353 6.020610 -0.137773
5.689824 6.613837 0.145691
9.655319 1.796342 0.059331
0.798969 1.647860 -0.036326
7.137758 1.948456 0.190458
10.383743 1.100890 -0.122724
10.404793 3.369603 -0.017540
0.068669 4.023302 0.095968
6.260641 5.025332 -0.151901
4.428057 0.442828 0.129116
9.120504 1.537561 -0.029438
0.878628 0.936574 0.015957
3.179119 2.160075 -0.038370
9.751713 1.486282 -0.007891
5.634675 7.490182 -0.050001
5.437804 2.986746 -0.036333
11.622704 1.111182 -0.085719
3.838688 5.331533 -0.048218
0.500665 7.783249 0.135765
4.706410 6.355300 -0.058708
1.840483 5.185677 -0.026808
0.982702 3.025292 -0.006157
6.814324 3.226378 0.020485
11.442907 2.417063 0.013843
6.952891 6.449769 0.083098
7.765375 6.426712 -0.022457
3.883546 3.915157 0.019266
6.853474 6.895464 0.022283
9.026934 5.217591 0.043155
7.071418 5.484490 0.071196
9.633340 2.150217 -0.073967
6.605648 1.932521 -0.140794
2.377729 1.821830 0.212147
6.992715 7.300086 0.093001
5.891230 6.401980 0.056410
1.991226 7.194085 0.062981
7.429990 6.581912 -0.033288
9.803527 6.439347 -0.115242
1.621052 3.488451 0.003598
6.539350 6.124938 0.007300
8.804246 1.333177 -0.068571
4.836211 5.246200 -0.069843
3.240555 0.342100 0.023121
4.467365 7.726197 0.094961
6.500382 7.035594 -0.013823
8.239924 1.319651 -0.005930
6.710103 6.149681 -0.143571
1.284300 6.589191 0.007961
9.814637 0.336048 -0.045072
11.086317 4.528884 -0.146169
1.215514 3.360807 -0.114999
2.994234 4.949981 0.079506
2.084174 7.090936 -0.027752
10.189862 5.783635 -0.001141
10.923345 1.689230 -0.080703
0.531285 4.437677 0.060402
3.989033 4.493954 0.022881
2.309935 0.091111 -0.080629
5.634392 1.054844 0.031868
11.059085 2.875845 -0.074191
0.842079 1.424117 0.069115
2.055349 1.898106 0.000583
5.844351 5.408895 0.004556
6.288416 7.690395 0.098095
8.946015 3.664484 0.072152
5.252232 5.168546 0.103893
1.693641 6.091263 0.114364
4.243342 5.383669 0.085937
11.785117 5.256103 0.011628
9.008666 0.009382 0.047979
1.396132 6.959337 0.058795
9.698510 1.290110 -0.028599
3.731118 1.443948 0.061219
9.376758 4.078479 0.163781
0.152657 4.694926 0.004145
10.455242 6.044590 -0.062078
1.947724 2.343393 0.005991
5.469007 7.561416 0.038119
7.941067 5.025887 0.017795
6.094435 6.753131 -0.058134
1.984773 3.816127 -0.122790
1.669422 0.569175 0.054582
3.414413 0.096881 -0.079532
0.628701 5.122038 0.033139
2.598537 3.409095 0.054355
1.561260 3.523816 0.121467
5.577564 2.607907 0.173108
4.278119 1.426372 0.078921
7.041987 3.789426 -0.028360
3.370546 2.038362 -0.045217
0.406933 7.142025 -0.055239
3.973322 1.429916 0.053190
9.062168 7.741420 -0.188783
3.070058 6.882267 0.053111
4.854581 3.069073 0.045633
9.059693 6.182855 0.028365
4.880175 4.645693 0.019640
10.645490 3.727453 -0.036767
11.016822 6.495940 -0.106573
3.726356 6.646333 0.012717
8.831564 1.612053 -0.160916
3.037404 7.248084 0.056759
1.674280 0.256663 0.154937
5.254572 0.044185 0.056125
7.229669 3.869416 0.041624
11.227091 2.410671 -0.127308
1.750818 3.381356 0.146727
8.548352 3.832082 -0.075071
5.705574 3.746640 0.102013
1.580512 7.262736 0.038133
11.671897 7.345590 -0.126681
8.349227 2.769631 0.072334
1.546304 2.300886 0.030222
10.869065 5.231987 -0.032413
1.237130 1.587350 0.059916
1.111911 3.203832 0.019792
3.978612 5.743655 0.019692
11.255510 0.045518 -0.011606
0.396294 6.174609 -0.024488
11.018487 5.870724 -0.042464
7.339339 3.098105 -0.043194
0.804620 1.982710 -0.103392
6.823101 4.320335 -0.033816
5.505489 2.365132 0.000749
6.767815 6.568686 0.022231
8.846442 4.724882 0.075420
8.143429 2.453848 -0.140934
11.966731 6.461452 -0.039574
1.880029 4.860707 -0.142799
9.754265 1.055698 -0.118119
4.933116 3.312040 0.005440
9.399690 3.917872 -0.209228
10.701350 7.557939 -0.194027
11.903978 2.565324 -0.037616
3.192502 3.588140 0.054078
5.435259 7.814355 0.032070
11.313351 3.409233 -0.113426
11.348861 6.616865 0.123095
4.474486 0.775723 0.035906
11.282513 3.150523 -0.117978
4.870694 1.470439 0.180752
4.497193 7.071888 0.097850
9.079433 4.420938 -0.053215
5.654542 1.748365 0.133944
5.378381 0.737416 0.054341
4.633428 3.367259 0.099468
5.193647 0.771235 0.062503
1.677812 3.881959 -0.051181
0.732446 5.830302 0.092137
9.047918 2.483091 -0.010145
6.773999 1.339854 -0.059817
8.062688 2.892204 -0.065203
9.628025 1.329268 0.043851
2.761274 6.750713 0.015112
2.805275 0.768996 0.048765
3.334904 5.927539 0.100967
3.647100 2.670714 0.059953
9.128291 5.827010 -0.146525
4.490179 6.167680 0.099729
3.878266 1.080444 0.125061
7.635619 6.052055 0.073693
2.238846 7.564966 0.168372
1.277042 4.536421 0.053587
8.365599 5.159473 0.052002
9.077344 2.580687 0.103642
3.556375 1.395856 0.026193
7.632494 5.955093 0.143334
0.408919 6.563727 0.146914
4.851828 1.649139 0.109265
6.935500 0.907522 0.165134
3.041022 2.818233 0.115048
4.178579 5.008669 -0.020709
7.314595 2.920528 0.101695
7.078774 7.712099 0.041369
1.850289 6.331800 0.066797
8.478983 7.329526 -0.000002
0.960351 4.797137 0.127506
11.636696 6.046039 -0.005728
2.428343 7.607896 -0.014382
3.042578 0.284990 0.085769
2.403607 4.599285 0.099342
11.897988 1.496746 -0.107992
3.439139 6.360898 0.014310
7.263507 1.861097 -0.018945
11.887610 5.932905 -0.098541
11.400814 2.660957 -0.021520
0.508198 5.212191 0.091514
6.254209 5.431680 0.181246
7.215656 7.270550 0.108203
8.428741 6.979039 0.070373
4.030912 3.502424 0.141413
3.934903 5.512150 0.156823
0.051408 1.459156 -0.029109
0.422840 0.784580 0.063905
6.600686 5.712508 0.049808
0.910645 7.254682 0.007465
2.429775 5.973194 0.004902
3.999263 4.134104 0.009557
0.845655 5.036664 -0.004847
0.370318 5.840631 -0.091402
11.123045 4.554631 -0.006542
5.222504 2.904541 0.041685
2.458614 6.806086 0.050103
8.501422 2.954151 0.014291
0.113344 7.229454 0.060260
2.940207 6.395231 -0.001185
11.528996 6.344158 -0.058248
10.772282 6.669863 -0.174665
7.631103 7.894498 -0.173137
1.118433 7.918908 -0.133610
3.816610 4.011230 0.172897
0.335191 3.018238 -0.139427
2.630292 5.865409 0.081199
0.305209 7.743391 0.124267
1.513964 5.040669 -0.008159
7.598574 0.205619 0.135483
1.205314 0.308435 0.170965
1.869157 3.713317 0.109623
10.833696 6.301621 0.143355
4.025429 7.099998 0.099780
3.995963 3.000061 -0.008297
1.038474 4.137354 0.062106
9.551166 4.104274 -0.066653
8.116527 0.756643 -0.109234
6.565594 0.007125 -0.077145
7.414954 4.189423 0.194025
1.204568 4.034266 -0.019722
3.123673 6.908914 0.045974
7.003698 1.453462 -0.035878
11.426783 6.820319 -0.037885
9.805583 2.170048 -0.053612
7.688716 4.314023 -0.028789
6.225823 5.656127 -0.065831
0.181586 1.162200 -0.108578
10.688595 7.571371 -0.103942
0.802249 7.662885 0.040119
1.548973 7.759935 0.196133
8.316861 0.017941 0.076088
9.745728 5.147456 0.112613
9.438608 5.368601 0.010338
5.428849 7.039298 0.035458
2.124669 1.611818 -0.067216
0.423627 0.992231 0.009883
10.216555 6.475473 -0.210783
11.732370 2.093610 -0.072670
2.929626 0.528247 0.177704
10.392916 0.735363 -0.014751
4.830371 5.161418 0.138512
3.736125 4.286868 0.020803
6.061852 5.983184 -0.075691
0.098018 6.456961 -0.034769
5.312574 0.021662 0.012415
2.394660 7.463505 0.139014
8.549486 7.037405 0.146007
6.030857 7.464496 -0.024184
10.426232 6.149351 -0.069788
10.759778 3.070049 -0.055720
3.801107 1.985308 0.023866
3.364606 7.299661 -0.048904
11.269565 3.361716 -0.039618
6.047971 3.903251 0.063957
1.158186 5.587544 0.055170
0.550622 5.507212 -0.083606
11.885106 5.547444 -0.057051
6.949964 4.988779 -0.119465
0.653916 4.069052 0.088069
6.135065 6.136198 -0.047753
6.049254 3.166326 0.013197
5.224654 2.098895 0.009636
11.415365 7.272577 -0.093960
11.385264 6.767880 -0.131893
1.499612 5.743604 -0.110949
1.820648 1.346072 0.174172
4.889863 0.365255 0.069079
10.008318 7.379576 -0.014393
7.485031 7.543328 0.177607
8.757962 2.179257 -0.023376
6.912701 5.035692 0.064971
2.520683 0.146972 0.046371
9.813185 3.149361 0.062105
0.168252 5.631905 0.045945
8.381811 2.888305 0.017134
2.332075 6.456941 0.022217
5.653098 7.302376 0.063417
11.701598 1.097663 0.045634
6.468430 5.505352 -0.137309
0.683386 3.008039 0.005708
5.145358 1.395073 0.013299
7.923205 2.793937 -0.022849
0.680480 3.854507 -0.142065
3.031845 7.167134 0.107913
0.220034 6.123216 -0.060659
6.480819 0.041431 0.010540
4.577731 0.451544 0.010608
6.044280 7.950843 -0.097880
3.550042 4.452995 0.016346
7.881684 4.881486 -0.145290
2.077034 2.822094 -0.035866
10.879824 6.651535 -0.069382
11.520977 4.456214 -0.047475
5.915924 4.740773 0.042048
5.584682 1.996115 0.031028
10.315400 6.213668 0.132003
3.478054 1.713346 0.086668
9.637268 1.098055 -0.127808
3.447691 4.779031 0.002753
8.639578 6.658606 -0.065400
4.008136 2.344609 0.038432
7.231220 2.416820 -0.033293
11.110419 1.194981 -0.113990
0.651897 4.825389 0.147474
9.687056 6.166194 -0.027286
6.502147 1.004990 0.001428
4.548812 4.281358 0.030944
4.203305 4.317791 0.035017
0.832944 0.854041 0.130453
3.100544 4.242328 0.088246
7.477644 2.175024 0.100045
1.171080 1.593008 -0.224173
8.032888 7.884442 0.025240
11.547040 0.722742 0.037691
11.769313 2.747417 0.110622
10.670895 4.949149 -0.040037
9.679330 3.238623 -0.167925
2.135440 0.143124 0.087600
11.641871 6.929980 -0.095060
2.432678 1.913753 -0.099221
10.428597 3.296656 -0.089555
10.534484 7.268311 0.043389
7.462900 7.756378 0.106769
6.255681 7.318198 0.090397
2.405102 3.288106 -0.039973
6.233620 5.952993 0.234416
3.487439 6.787518 -0.041435
1.510569 1.577901 0.025094
1.538294 7.755728 -0.083808
9.614052 0.811287 0.075955
11.068841 5.261744 -0.009344
1.702425 1.912273 0.105519
0.159132 1.720016 0.013416
3.163592 1.098005 0.045264
1.613268 7.536882 0.047084
2.263518 1.026198 -0.108653
6.999923 7.299879 0.099380
5.067529 1.325650 0.121082
5.150749 2.633928 0.015882
2.467352 1.691792 0.043888
7.975065 7.903481 0.024748
3.474123 0.743345 0.178015
4.789763 6.889370 0.084852
5.560968 2.403625 0.046371
10.853094 7.618328 -0.084019
2.956268 6.002691 -0.070670
8.623992 2.110719 -0.059502
3.712425 4.079461 0.058915
10.733116 1.288938 -0.062432
4.728954 3.257503 0.056941
6.061941 0.210416 0.095954
10.526583 5.452824 -0.005503
8.073131 4.746570 0.021175
1.132306 2.174512 0.077938
1.642030 0.106387 0.049018
11.888789 7.512212 -0.048820
0.349263 0.999209 0.048166
3.610463 2.621836 -0.084972
11.506732 0.203145 0.054193
0.181272 3.066095 -0.095818
1.936775 3.213489 0.105656
2.560371 4.268056 0.047495
1.036689 2.589275 0.112568
5.663536 1.998038 0.045043
7.109255 6.286285 -0.057028
3.819859 2.231401 0.139691
1.303796 2.656464 0.043572
9.731473 3.928674 -0.020717
9.653657 2.190490 -0.022530
6.745199 5.812622 0.105528
1.652905 0.671927 0.100116
6.502936 2.585132 0.048166
7.554287 3.366982 -0.114041
5.139508 2.064421 0.015984
10.366361 6.719023 -0.029649
4.680545 2.832804 0.195471
6.130645 3.365203 0.066715
1.369720 3.750444 0.022864
6.762610 6.641383 0.121026
9.197377 1.749593 -0.030277
8.775100 6.630363 -0.016001
3.083770 7.586994 0.064017
11.902395 2.128283 -0.165488
8.639210 1.354333 0.065450
5.085029 6.309891 0.083107
4.978902 2.502833 0.027361
9.351904 1.819364 -0.115231
2.108188 0.624492 0.058789
7.675529 4.910302 0.119940
8.626074 7.495520 -0.062110
6.196080 7.050134 -0.049752
10.478381 4.710330 -0.005346
5.623632 3.508865 -0.084376
5.578713 7.811073 -0.133773
3.416156 5.282598 0.017850
11.032460 7.649513 -0.098509
3.795238 5.505795 0.032263
8.343255 5.574291 -0.049328
4.912235 5.608495 0.077276
11.225090 1.005385 -0.061911
11.375512 2.021015 -0.092711
0.360423 0.526346 -0.024872
11.934403 7.460079 0.005190
7.259233 7.956135 0.093060
0.886242 4.840499 0.094298
5.964370 1.247938 0.094688
0.593663 0.994878 -0.247446
6.586726 3.569121 -0.051235
2.225454 3.126483 0.018351
4.415284 1.565257 0.070188
3.656401 0.713770 -0.075001
7.226544 5.179109 0.130898
9.868344 6.338389 -0.007078
11.238440 0.504686 -0.093788
3.946297 2.476112 0.067826
6.836279 2.403417 -0.003161
0.070790 4.337462 -0.054596
4.465962 4.836194 0.094106
11.528446 3.283869 -0.081253
1.426063 6.927548 -0.081131
10.437933 3.126321 -0.088947
7.830062 2.426904 -0.003862
3.526725 6.133795 -0.032180
9.337931 6.735453 0.077789
3.471376 7.019189 -0.033098
10.737781 1.354260 0.099769
0.993110 1.575661 0.095815
1.427917 3.700827 -0.043354
9.000146 7.740542 -0.006757
5.390140 4.962870 0.141221
1.769560 4.986882 0.022235
6.161209 2.613391 -0.059072
3.563629 7.923925 0.063483
6.591783 1.460849 0.188476
8.924567 4.474301 -0.134860
10.282072 5.399186 0.008237
0.708002 6.479897 0.019935
7.108257 6.507749 0.010477
11.803990 3.092154 -0.075939
5.517569 2.167997 0.019941
9.234797 7.838106 0.062096
1.167128 4.423473 0.075581
10.482095 2.256642 -0.117825
6.984634 1.106297 0.147134
10.659158 6.425500 -0.143402
9.445415 6.788155 0.028751
10.430877 4.558371 -0.022702
0.687551 3.071934 0.114964
8.586289 5.277740 0.019582
2.363771 7.840853 0.130584
3.189724 4.626569 0.051477
3.897395 6.296820 0.133430
7.095776 7.056456 0.048122
7.534331 6.054829 0.183949
11.177311 3.892427 -0.098534
0.152621 1.426529 0.104280
2.321262 5.572371 0.082913
4.344030 6.651968 0.069158
9.816082 7.702875 -0.074899
6.598905 1.218226 0.065616
6.143887 0.909392 -0.080513
9.122231 5.089901 -0.127975
7.860711 6.616844 0.062640
3.478270 0.611046 -0.069361
1.045397 4.912255 0.141113
5.547681 2.131037 0.023777
10.561997 7.993678 -0.018306
7.177693 2.891029 0.025296
0.639469 0.655664 0.052209
5.280925 6.261484 0.026466
4.615345 2.405717 0.024681
6.989099 3.352878 0.012852
7.045521 1.044347 0.105826
11.415984 2.647018 0.047203
4.057126 1.066419 0.157862
4.897146 2.058835 0.081538
7.362167 4.629770 -0.000234
10.636687 2.391714 -0.173183
8.473727 5.339786 0.045224
5.650625 7.209041 0.111890
9.774793 4.611293 -0.060931
5.823673 0.229436 0.106928
11.562275 7.678415 0.059392
3.389993 1.582592 0.062499
1.528703 2.769223 0.119345
9.964799 4.212099 -0.006656
3.567588 4.950495 -0.083197
10.168755 2.736646 -0.071651
7.312858 3.523740 -0.015946
6.107512 5.014574 0.080634
1.044381 3.657009 -0.042656
9.435786 2.266926 -0.058543
0.791093 3.285932 -0.055295
11.581814 3.078088 -0.046795
10.523695 2.335638 -0.032093
3.635623 4.805544 0.133771
1.534394 4.098078 0.098705
10.628093 3.292227 -0.025468
5.758207 5.675423 0.062619
1.498485 6.500444 0.043061
5.982266 5.190770 0.049197
2.961831 2.729485 0.176211
4.894025 7.493210 -0.146432
7.682893 0.833712 -0.004471
10.984377 6.444321 -0.016303
9.611158 3.370213 0.064231
1.932107 3.173855 -0.046471
5.728029 6.745516 0.071489
5.903136 5.242378 0.110295
11.873793 7.790989 -0.079430
1.042774 7.024175 -0.126282
6.129212 0.930155 0.009205
10.972357 4.025237 -0.137304
4.786191 6.140871 0.105320
3.140614 0.660462 -0.014353
6.671202 4.339829 0.171397
3.841061 7.942379 0.067460
11.124950 1.912031 -0.106550
1.017585 0.934341 -0.014403
2.480495 2.315373 -0.039342
1.006452 2.754701 0.056923
8.542670 2.286197 0.111865
3.517702 3.456707 0.038262
10.802028 6.667272 0.033943
10.723577 4.139062 -0.114812
11.236640 4.714054 -0.018004
3.073542 0.872288 0.237597
0.007881 0.518438 -0.106122
4.651265 7.607974 0.152670
11.550756 2.776764 0.050275
9.164903 7.578653 -0.169265
0.715919 2.685022 -0.094460
8.430867 5.116609 -0.083362
11.004762 5.292222 0.036052
11.612640 0.719928 -0.078038
8.591864 0.567502 -0.021783
10.355945 3.533789 0.020649
10.100425 1.018264 -0.023545
4.300053 2.366636 0.073640
1.188526 1.566843 0.003314
8.729570 2.503529 0.078898
1.642960 3.647493 -0.025574
4.610385 2.490655 0.188253
11.948831 2.683526 -0.070833
6.717426 3.887755 -0.035782
6.260880 5.461830 0.087549
11.374559 0.336003 -0.007204
3.408481 7.980073 -0.103451
11.993171 3.446445 -0.026092
10.943758 7.384233 -0.149207
4.366848 0.057943 -0.011133
3.926878 0.459892 0.118918
1.518760 0.793134 -0.034493
10.987681 7.301919 -0.013146
2.229719 3.296178 0.014445
0.107744 6.771085 0.162678
10.680919 5.557027 -0.047069
7.177382 0.702496 -0.074814
8.062184 2.893601 -0.086747
8.797694 2.651706 -0.085143
0.511939 3.624543 0.026058
1.102260 6.030516 0.026754
5.998043 0.668930 0.116956
0.603131 7.410869 0.030891
6.051859 3.812782 0.048822
8.836064 2.926286 0.012261
7.888910 5.581591 -0.005608
7.399772 2.212002 0.037834
0.556869 5.699771 0.079075
2.839859 3.327494 0.113364
10.769936 3.825252 -0.084258
1.478646 1.512863 -0.108265
6.398684 1.625477 -0.031911
0.600581 6.891153 0.039662
11.270431 4.610582 -0.242862
2.058761 3.378229 0.003778
4.920263 6.199733 0.087151
6.561374 7.296841 -0.015317
8.623820 1.270866 -0.099564
11.249428 7.983998 0.096440
8.836359 0.113139 0.096612
4.168420 4.911716 0.034037
0.904075 2.109159 0.128401
8.488861 2.017067 0.096191
11.670124 3.957232 -0.135504
0.204193 4.833792 0.223306
9.296155 3.494844 -0.097464
2.113703 5.711818 0.021098
5.519444 7.602317 -0.042753
6.271640 1.350982 0.040439
7.373115 1.900684 -0.091016
11.874442 4.876513 -0.045963
8.248825 3.282076 0.083265
4.708649 2.523092 0.069150
8.580250 4.035981 -0.031013
5.600775 5.574686 0.167275
4.957440 7.269351 -0.021515
4.387839 7.526954 0.130952
5.920873 6.556272 0.015063
3.374186 2.772875 0.070322
2.905204 7.070966 0.052631
1.781600 5.679534 0.047126
5.282695 1.395947 0.042721
3.519136 7.625907 -0.009117
10.043298 1.978740 -0.079817
10.174730 5.457137 -0.000703
4.126520 5.556232 0.045163
7.429705 7.264507 -0.080682
10.827490 5.331684 -0.098978
4.309943 7.865082 -0.002208
6.656589 0.477840 0.022375
5.322703 0.299675 0.060346
7.803183 1.564954 0.011899
11.517250 4.602111 -0.098476
1.663484 3.391307 0.035769
11.584624 0.660094 -0.155903
7.988802 1.616073 -0.230010
9.550446 4.633982 -0.032476
7.621462 3.219794 -0.124403
10.443804 6.107501 -0.115581
3.914865 3.735717 -0.043365
8.496572 7.021896 0.040593
3.169356 6.070043 -0.046130
6.103887 3.955532 0.057099
8.177886 2.863892 -0.042838
2.413492 1.710732 -0.055148
0.733913 2.336614 -0.108959
9.491377 2.840622 0.008910
9.707356 2.889890 -0.000533
7.987978 1.432123 0.061484
3.857179 3.785691 0.198645
7.898076 0.894662 0.022947
1.006565 6.948627 0.044088
7.950116 4.402772 -0.009881
6.914383 0.760750 0.028640
7.406452 2.622568 -0.017355
5.363811 2.041895 -0.027889
2.701900 1.249240 0.205214
8.710526 3.845114 -0.164213
5.569564 1.466175 0.061350
8.944559 1.213386 0.015665
4.370161 5.618300 0.062546
1.053471 3.436634 -0.055246
6.509491 5.376449 0.011439
7.473136 3.759786 -0.028245
11.061325 4.031841 -0.132922
10.653057 2.485540 -0.047823
0.685790 3.410555 -0.018269
9.262085 3.847188 -0.070165
3.136354 2.739216 0.102771
8.366381 6.609700 -0.094390
4.553784 1.970214 0.084078
3.864940 1.764322 0.001486
5.859405 2.754000 0.070219
6.366374 6.281458 0.033773
8.333799 6.780538 0.009850
7.654601 4.520165 -0.074275
8.139066 2.885490 -0.067656
4.608922 5.190477 -0.020355
8.128085 6.611772 0.008286
4.144648 1.943098 0.109318
7.290399 5.340373 0.097168
5.514396 5.678987 -0.000051
6.753583 3.121986 0.027747
0.210458 1.158507 -0.125416
5.985437 4.859538 -0.143609
2.639615 1.681354 -0.026169
4.629750 2.944108 -0.005702
0.885249 4.356293 -0.107307
7.882813 7.701601 -0.143262
10.722260 1.172185 -0.003719
4.255166 0.589548 -0.015375
1.260813 4.310892 -0.110894
7.443214 7.544687 0.192570
1.524437 0.369602 0.041350
10.699456 5.136942 -0.071864
1.469482 0.218270 0.080637
4.342446 4.408387 -0.012564
5.935917 0.953312 0.160084
1.414474 5.272972 -0.097400
3.824971 2.887886 -0.055785
3.303349 5.236559 0.035951
8.559605 2.065990 -0.076592
11.835281 0.599316 0.060839
4.354048 1.455068 -0.080366
9.488634 2.191324 -0.090570
1.684092 1.318142 0.048256
6.958965 1.587473 0.060390
5.192559 4.353444 0.121596
3.458205 3.501135 0.074365
9.860524 6.602404 0.137588
8.957061 3.981040 -0.061445
1.607963 4.316069 0.041633
3.508886 5.681018 0.115186
9.834059 6.827312 -0.063275
11.909179 4.677612 -0.075853
7.338779 0.294577 -0.029401
10.460385 3.673705 -0.097210
11.810658 0.258159 -0.142759
8.886546 4.839035 -0.067111
7.736786 0.520381 -0.124040
2.654869 4.316873 0.071011
4.445095 1.199369 -0.081024
7.482656 6.844193 0.168937
11.116816 0.754385 0.084148
3.622166 5.275366 0.134539
4.742509 5.630458 0.027273
0.266843 2.201501 -0.044775
8.360724 4.742190 0.084171
5.322843 2.639348 0.053434
9.572782 2.071609 0.009423
2.803860 2.077233 -0.015838
7.915754 0.126768 0.080216
8.077111 5.383488 -0.071777
5.571890 0.574676 0.044461
2.263269 1.576084 -0.102250
4.834789 0.695587 -0.009181
8.940515 6.434238 0.015143
2.270227 4.235864 -0.000258
1.080492 3.738850 -0.018475
5.553389 4.666571 0.098810
2.814256 6.466176 0.035417
9.606613 4.992684 0.062803
9.806952 4.106214 -0.231742
11.343365 2.505330 -0.007921
10.077148 4.133979 -0.002429
7.769326 7.897901 -0.125376
2.244623 4.559003 -0.068393
9.876078 3.817551 0.029734
8.737132 7.106331 -0.106416
8.962399 0.436282 -0.076267
8.369205 0.506191 0.033313
9.960278 6.315030 -0.067908
3.574121 7.537178 0.083352
8.069408 0.407120 -0.077629
6.207589 0.192430 0.050087
4.054126 0.078045 0.131977
3.922073 4.615742 0.071703
1.865615 1.102192 -0.145100
5.898424 4.490727 0.082913
4.424610 5.310353 0.049418
5.058196 0.124375 -0.031433
10.220015 6.960929 0.066167
8.178145 2.020581 -0.149621
8.162980 4.431837 0.138890
11.808553 2.829580 -0.104668
2.613904 2.746136 0.164384
6.094745 3.226847 0.024530
1.110224 0.029688 -0.088784
4.713495 3.430267 0.050824
11.404219 2.120135 -0.027301
1.031044 2.859262 0.058894
9.092673 1.303194 0.056435
10.385210 2.678960 -0.118191
6.107354 5.595469 0.067057
9.571328 7.870238 0.022656
5.292548 1.577032 0.016747
4.240252 6.933492 -0.029318
6.068770 4.918053 -0.047766
2.336919 0.808035 0.095582
3.689836 0.117553 0.109074
3.664514 7.072190 -0.020678
11.860904 1.872488 -0.160991
4.021957 0.849944 0.144269
2.746423 5.244502 -0.083590
11.277205 5.652830 -0.040682
1.662988 7.160534 -0.037704
11.589615 4.002545 -0.194073
10.239737 2.495707 -0.035330
7.764703 2.546027 -0.017794
5.133695 1.638074 0.154487
2.366884 5.081887 0.217060
1.274438 7.538179 0.004973
1.244104 0.677465 0.101080
4.189703 3.093093 0.128486
4.885781 2.814565 0.000240
11.084522 0.641611 -0.121556
6.434729 4.758567 0.150659
11.887569 7.864060 -0.083504
8.650658 2.213432 -0.022180
1.755535 5.816896 0.004646
6.642808 7.204632 0.008206
1.912446 2.165200 -0.017943
0.470431 7.351880 0.064480
11.325446 5.986977 0.046342
4.054248 5.165157 0.015743
2.275032 1.553099 -0.074891
1.221500 2.219208 0.023017
7.825689 0.812429 -0.122344
5.533788 7.165781 -0.015377
0.140111 6.471626 0.096295
8.582176 0.692718 0.165949
3.080151 4.248119 0.072613
9.366696 1.704794 -0.117732
5.863269 6.124989 0.093355
6.426972 4.585118 -0.156317
5.486375 7.563074 -0.019204
8.111783 5.817108 0.111644
11.880542 0.805496 0.004874
9.574472 2.982247 -0.146137
0.829222 4.610191 -0.120619
5.937627 7.294707 0.098278
2.811451 2.967580 0.036830
1.228787 1.503142 -0.028140
2.342106 2.266494 0.068629
2.977372 1.985318 -0.003758
11.516736 1.235930 -0.207189
8.938376 2.751214 0.038866
10.235631 1.992019 -0.096820
8.385868 4.083723 -0.094897
3.787850 7.154049 -0.060717
4.693266 7.634597 0.063083
5.288178 1.275352 -0.025785
3.520889 4.555452 0.094550
5.057310 5.390808 0.019211
9.254242 1.220122 0.054983
0.908441 4.254395 -0.017466
3.318898 1.600428 -0.007994
5.748312 2.912576 -0.123943
8.114697 2.591527 -0.097135
7.751141 6.519602 0.054916
8.699827 1.872891 0.222142
1.263145 4.320794 -0.079898
2.169035 4.684733 -0.048918
3.707763 2.638975 0.072246
3.380252 7.435460 0.082348
9.067092 2.657092 -0.081662
11.919814 2.609527 -0.048101
8.197376 5.540862 -0.139250
0.396557 3.901980 -0.020246
3.571133 5.798379 0.116760
9.636327 1.223020 0.092948
11.092081 1.184680 -0.065872
7.138947 5.888412 -0.010943
4.185871 3.108340 0.081339
4.261420 6.857065 0.133264
7.601272 1.867969 0.039427
10.370288 1.921913 -0.106399
4.089976 6.906013 0.073889
2.288377 2.893621 0.112290
0.033486 0.878442 -0.060437
1.649650 1.762401 -0.080052
10.214254 6.156487 -0.004327
7.495016 2.123603 0.031954
11.887648 4.446267 0.022638
0.833541 6.676907 0.019100
4.392196 4.883382 -0.006460
9.548511 6.021524 -0.070431
7.934476 7.815513 -0.087766
0.800049 2.393689 -0.063880
4.817280 7.009694 -0.002046
7.651591 4.408496 -0.038655
8.253053 1.611323 0.076523
5.420295 1.055940 -0.060469
2.258011 2.623162 0.031299
11.591127 1.101269 -0.100878
5.598010 6.173806 0.153539
8.608122 4.459496 0.001917
6.417928 0.353870 -0.006608
0.968318 7.026383 0.079677
2.840316 4.768023 0.046644
0.756304 3.542984 -0.026966
2.289332 1.127504 0.157823
2.402241 3.758802 0.093599
4.978325 7.338613 0.179327
3.860370 4.675371 0.138135
4.350638 3.673727 0.107096
9.802646 4.864762 -0.028468
0.256319 4.404483 -0.084977
1.240746 4.989064 0.076455
9.693636 1.591779 -0.031549
6.407581 1.189364 0.077352
5.266673 0.100168 0.038644
3.207807 6.654717 -0.010590
6.507842 0.025914 -0.058033
2.658761 2.049100 0.095712
10.300329 4.682709 0.057674
9.888476 3.998403 -0.062818
3.862211 7.211795 0.082567
0.293997 1.705639 0.112358
10.652013 0.911942 -0.114868
3.584062 1.283327 0.018973
7.882507 3.982714 -0.093054
10.297866 2.329872 0.048824
9.580343 3.643172 -0.014433
10.350012 5.502942 -0.082155
5.869613 2.571034 -0.099376
10.107514 5.321119 -0.056882
5.533873 0.157169 0.115973
3.165813 4.369401 0.020868
5.771598 7.258602 -0.000041
4.024729 7.473265 0.097606
9.205762 4.574314 -0.126990
9.980506 7.864698 -0.036685
1.694008 1.883163 0.075651
1.973122 2.380920 -0.029657
4.603936 3.584753 -0.020907
5.559436 4.071248 0.056229
11.475858 6.555761 -0.060688
11.300305 3.579120 -0.070964
11.604487 0.384412 -0.036541
8.757065 5.599004 -0.003110
8.126726 1.781347 -0.082069
3.244694 7.058536 -0.007882
4.471855 1.695933 0.081409
0.032200 2.365918 0.086675
9.995463 1.097848 0.066744
3.313021 2.420551 -0.021751
0.951373 4.807644 0.102488
3.787094 2.138487 0.107197
3.878040 0.387659 0.044664
8.687828 4.690625 0.019492
0.068480 5.879432 0.064360
2.760162 0.871376 0.183706
10.757631 3.393954 -0.132441
10.258513 0.546131 0.003896
7.548376 0.135452 -0.007759
6.707399 2.996304 0.002968
2.671410 2.292215 0.132109
10.501170 7.002218 0.018629
9.128658 0.108078 -0.107626
6.155192 5.171421 0.006279
1.932220 5.869132 0.050302
2.590070 3.336044 -0.071668
4.551522 4.006006 0.114330
3.973495 1.976931 0.041446
0.732673 2.019090 0.024737
4.876516 0.423983 0.070464
5.384607 7.245742 0.182412
3.444958 0.229387 0.049419
4.611635 1.096880 0.017289
3.988532 5.794136 0.185285
4.522028 3.660723 0.006337
7.428372 4.095929 -0.035613
5.967968 2.355585 -0.078134
2.371073 1.289168 0.123779
9.543116 6.392930 -0.012183
6.158238 0.990252 0.066249
5.500377 2.366576 0.051137
8.560113 6.014888 -0.027065
9.025655 2.384798 -0.087168
10.188714 7.610790 -0.104407
9.734960 1.402128 -0.002350
8.028183 4.220853 0.003953
8.653552 4.304276 0.111093
1.885522 4.003925 -0.028269
8.391038 6.195144 -0.051546
3.053494 0.368735 -0.036123
3.094029 4.367210 0.154047
1.441581 6.318066 -0.072610
4.762908 0.405586 0.106022
0.238532 4.370448 0.116317
7.883754 3.525269 -0.013948
8.977232 3.236856 0.033404
9.306595 4.301750 -0.198021
1.546344 4.997684 -0.003820
7.693039 5.628760 -0.130215
10.059519 7.185979 -0.027209
0.431636 5.252633 0.007112
2.320425 7.991601 -0.022992
3.213310 5.318885 0.120542
5.543815 2.153077 0.065867
2.065982 1.177618 -0.006767
6.466463 0.567166 -0.016347
4.127421 2.145829 -0.068573
7.861326 0.953035 -0.016941
6.375895 5.467371 0.193379
8.235575 5.516055 -0.065914
2.956093 4.896501 0.077467
8.484826 3.062493 -0.057946
8.815637 3.711219 0.042721
8.663610 2.075523 0.016819
0.821401 7.349094 -0.004363
11.353804 0.126930 -0.192333
6.922366 2.564725 -0.024473
3.267829 4.582414 0.141136
5.209638 1.445226 0.022244
6.211219 6.834114 0.078260
6.213236 3.843471 -0.009496
2.975502 2.964532 -0.103164
3.179571 0.502546 0.079494
4.363055 2.249469 0.072553
9.371098 4.717154 -0.076246
5.249329 2.249757 0.011882
0.463576 0.361174 0.030163
5.426518 4.636462 -0.007554
2.416351 2.431329 0.066543
0.148949 6.771130 -0.015070
11.724360 5.534334 -0.238340
3.524646 5.771805 0.036019
6.449958 7.121433 -0.022503
4.298397 6.480056 -0.018645
0.640881 2.634053 0.042593
10.810607 4.552038 -0.086806
11.227889 2.071001 -0.007989
2.237193 1.612286 0.123587
5.015963 1.646866 0.054786
4.483689 0.888209 -0.075495
2.006604 1.912425 -0.023724
7.939928 1.797591 0.068638
9.383953 5.380576 -0.050988
9.116376 2.011848 -0.089794
8.103023 0.373279 -0.013888
0.209885 3.372828 0.042216
2.755169 1.607569 0.063335
6.175214 5.514791 0.080424
8.434087 1.773690 -0.078449
4.637084 4.455754 0.024559
5.391202 1.408222 0.020034
10.088630 3.857039 -0.042395
0.282564 6.937751 -0.161755
3.223067 2.426300 0.027668
3.479222 4.217579 -0.058541
11.913391 3.508960 0.058342
2.730433 0.560122 0.165802
0.565358 0.165372 0.142508
4.997570 6.739778 0.107920
7.794346 2.722827 -0.038799
1.841008 5.488550 0.107879
10.076338 3.301556 -0.056246
2.357476 6.706482 0.087280
8.451351 1.560167 -0.084725
1.941696 3.870625 -0.012914
10.580702 4.387114 -0.009076
2.415845 6.348575 0.179823
8.776307 0.235569 -0.021475
10.064328 2.899552 0.138107
3.059357 3.801402 0.263513
1.113913 4.710640 -0.081268
7.033695 1.131719 0.012538
5.988252 4.348754 -0.042743
5.751836 5.547631 0.024871
9.376013 5.864333 -0.072218
5.557316 1.794763 0.033074
5.964377 3.526379 0.109226
5.847171 2.383718 0.108890
5.455058 3.101139 0.060179
4.868736 2.904130 0.045405
1.930851 7.560958 0.042967
3.543726 0.107138 0.058171
3.178699 7.581806 0.091883
2.978164 0.264789 0.045596
9.393897 0.623350 0.009629
1.368454 1.648186 -0.078781
2.465044 2.294683 0.103187
6.316965 6.861882 0.165825
3.750498 6.729368 0.063181
2.881953 7.475936 -0.067311
4.480596 3.117758 0.154450
6.024255 0.126682 0.006190
8.092021 5.006567 -0.242361
11.666665 7.193413 -0.068367
10.231666 0.859518 0.006069
5.159909 6.622343 0.073294
5.419644 0.014282 0.138385
4.988560 5.858526 0.093576
2.867204 3.946285 0.054337
11.421185 7.266099 -0.206910
0.823917 6.999877 -0.073050
2.459368 0.371989 0.054752
7.943774 3.985195 0.050729
7.074749 1.936539 -0.067012
3.343767 3.515132 -0.000835
11.243455 0.530409 -0.012703
4.913459 2.884446 -0.106028
7.155043 3.268261 -0.141298
1.092316 0.031135 0.001916
10.690666 3.796151 -0.026393
1.236043 7.157008 -0.015216
4.728561 0.486119 -0.135140
10.626891 7.558108 -0.043953
11.339928 3.914534 -0.155400
10.847708 1.684749 0.004194
9.931118 7.752818 -0.045928
2.799609 3.788131 0.064927
0.382248 3.495318 0.057389
5.421715 3.011761 -0.001356
0.758155 7.050693 0.079432
11.526411 1.039404 0.047712
0.098249 1.683718 0.032385
3.905767 2.265764 0.154304
2.439508 0.499422 -0.009188
0.164291 6.752591 0.074840
5.988937 3.908944 0.054279
0.912598 4.812722 -0.061243
10.799270 7.083827 -0.053359
8.251535 3.958013 -0.050843
4.440009 2.210367 0.004263
10.098769 4.249848 -0.033177
9.562292 4.001905 0.051581
3.917293 2.390603 0.023918
10.166738 1.854141 -0.030984
11.152774 2.862393 -0.165618
7.438701 5.880368 0.015801
4.221396 1.322637 0.140111
10.807033 7.968636 0.016986
11.314397 1.882110 -0.012449
4.167407 2.181206 0.007150
1.035503 0.982986 -0.057997
10.413721 3.134897 -0.051047
7.977520 2.974840 -0.109369
2.783974 5.454539 -0.053783
6.803127 7.168291 0.094146
3.698324 1.982937 -0.023781
11.030261 6.475136 0.093595
4.105377 2.466293 -0.064229
2.355096 3.253824 0.073603
0.518510 1.026198 -0.083427
4.110205 7.141825 0.062785
11.873368 2.986514 -0.133280
2.620077 5.606962 0.045643
5.496616 0.211491 0.027177
11.665279 5.576959 -0.086627
0.080570 1.810506 0.041253
3.540758 3.611745 0.168048
9.854209 5.390307 -0.083629
1.148780 1.365757 0.091339
11.139554 4.217456 -0.042577
10.014689 6.685740 -0.041331
1.716620 1.307258 0.204533
7.108151 3.740888 -0.158212
6.665979 1.472438 -0.031986
8.324322 1.146483 -0.153732
3.682084 3.919970 0.023999
4.609855 3.653318 0.029067
2.889612 5.150681 0.346811
3.502794 6.862402 0.075807
2.108745 5.652723 0.178696
10.852836 2.690646 0.055373
10.649090 3.888723 -0.080791
4.320199 5.390161 0.086428
8.318616 6.709786 0.122103
5.883306 5.462010 0.048259
3.369393 4.020666 0.064386
4.195251 1.067771 0.088628
11.581868 6.946337 -0.169995
4.097538 2.250921 -0.015426
6.943997 3.240679 0.043538
11.341230 7.076794 -0.006931
3.571126 1.658699 -0.024272
9.707280 7.310622 -0.060349
1.368969 1.832774 0.015328
8.799966 0.697751 -0.031451
9.680252 4.108906 0.020612
10.049326 6.362537 -0.031044
11.700636 3.219116 -0.037834
8.531265 6.741899 -0.126570
11.726533 3.170822 -0.134543
3.340240 6.520740 0.073078
6.258731 0.902033 -0.097703
2.568890 2.266984 0.063090
1.002345 0.979861 -0.034009
5.267236 5.916869 -0.022551
8.636164 3.756883 0.034830
9.341362 5.244867 -0.082870
0.203862 1.907047 -0.065194
11.306629 5.877409 -0.103897
2.966802 7.942382 0.049676
3.506403 0.632472 0.266038
9.988944 2.550470 -0.207164
10.730578 6.955361 -0.048542
8.837242 6.813038 -0.039705
3.993799 6.976270 0.124143
5.554110 1.812711 0.008943
10.015261 4.505239 -0.235668
4.287703 0.688669 0.153231
9.663672 3.448144 -0.121235
9.384113 4.609065 -0.035078
5.624057 2.068412 -0.071356
10.758661 3.377030 -0.134504
4.614237 2.929535 0.007009
8.998984 0.677102 0.044294
7.676986 0.548234 0.068756
3.975008 6.248872 0.000716
6.381407 0.023423 0.065860
7.272479 7.889122 -0.019898
6.441911 7.176891 0.033809
1.328629 7.898293 0.035739
11.897407 6.285025 -0.002592
11.599255 0.019743 -0.100709
0.449694 0.927767 -0.003528
11.331358 2.549471 -0.033886
6.377866 1.450938 0.032979
1.508454 0.483881 -0.037043
9.846829 7.335792 0.098996
5.195581 7.281914 0.004957
8.558288 6.136308 0.044169
9.926680 2.024420 -0.022810
6.456476 6.818774 0.121440
0.595984 6.553394 -0.163965
9.869650 2.589059 0.124733
8.328460 1.021255 -0.028593
10.921697 1.084580 -0.147201
3.241645 3.271679 0.056144
9.422056 6.657013 0.147805
10.477412 0.610708 -0.005433
4.260613 3.437699 -0.050620
4.922256 2.836735 0.006993
4.007850 7.139032 0.153805
0.068731 1.223592 -0.112547
2.778689 5.244655 0.028142
3.978436 2.583988 0.024232
1.300846 5.172145 0.194749
9.186675 6.577848 -0.050985
5.123431 6.597079 0.146417
6.818571 6.764154 -0.036127
3.415279 2.340942 -0.017308
4.324180 2.207132 0.126786
9.040609 0.981323 0.024225
5.637816 2.042681 -0.101040
7.158264 0.954818 0.062158
5.072166 6.272009 0.093507
6.684418 0.378545 -0.028682
10.768299 1.533665 -0.030908
3.208821 6.321291 0.066878
6.228744 6.147824 -0.010848
8.246713 7.787913 -0.056789
1.041474 3.068872 -0.035596
11.544091 0.360839 -0.073870
5.985093 6.465395 -0.074159
2.944047 2.290292 0.040263
9.125169 6.185320 -0.145669
9.786971 0.154944 -0.031539
7.567437 0.278466 -0.003584
10.993953 4.784842 -0.132416
1.066928 5.472884 0.085828
6.331182 4.495904 0.179847
8.914681 4.257637 0.082067
11.001818 4.776921 -0.158743
7.697361 1.047526 0.101654
7.227742 0.508999 0.027119
4.658736 2.795211 0.041033
6.859320 4.382237 -0.030583
6.657563 1.990890 0.019820
10.860300 1.432113 0.060968
9.925214 3.571071 0.003702
8.846346 3.277564 -0.054899
11.085418 2.149611 -0.103963
0.793950 7.416294 -0.020132
9.235411 7.543636 0.017626
5.563400 0.374296 0.185160
9.021658 3.840545 -0.109202
3.554130 1.902054 0.046568
5.608059 2.688824 0.005820
9.895089 0.227823 -0.098934
0.422163 0.640656 0.037268
3.493519 0.268173 0.090275
5.861542 1.005307 -0.079466
10.218026 5.194120 -0.125471
3.240398 0.626720 0.140188
9.876893 7.087736 -0.013746
2.934533 6.420848 0.084768
3.637811 2.153906 0.007154
6.645817 5.532104 -0.009676
7.846862 7.615585 0.033791
10.560840 0.929978 -0.086331
10.553605 4.480556 -0.134848
3.001941 3.724471 0.043895
8.947226 2.482579 0.047860
7.619916 2.303568 -0.079779
4.633722 0.691975 0.129085
9.312502 5.176653 0.025354
10.770232 1.581781 -0.117123
5.750335 3.381839 0.035125
10.993264 7.424871 -0.053591
1.531449 2.786116 0.076236
1.994288 2.529417 0.085869
9.170413 7.459818 -0.131095
3.666620 4.668581 -0.059823
7.024390 4.564125 0.095123
5.964853 1.779043 0.040520
1.749425 5.129736 0.062529
9.050804 3.033380 0.000694
8.897190 4.350424 0.098346
1.742441 3.181418 -0.066235
3.117260 0.648468 0.130975
9.607016 7.021482 -0.099825
10.946771 5.534144 0.007663
10.441081 7.665865 0.060475
6.022343 2.451783 -0.078782
4.408745 2.251534 0.078254
5.343023 1.085053 0.017511
2.116662 2.445666 0.011729
5.951866 2.600717 0.035128
2.770650 1.471678 -0.041229
1.943396 2.116741 -0.043925
4.567474 2.352210 0.097689
0.767225 6.863727 0.079266
5.644250 3.570254 -0.008991
8.353640 6.558439 -0.127811
7.816878 0.398098 0.181262
11.703105 1.507692 0.034269
10.629535 7.621822 -0.019067
7.605021 0.402459 -0.079224
10.771472 0.555677 -0.094771
5.333360 4.143845 0.058751
9.586489 2.318673 -0.110594
3.413755 1.553530 0.172930
6.320434 4.869920 0.036867
11.758416 4.872830 -0.021676
7.185596 1.504526 -0.070839
6.081496 4.312550 -0.041878
9.447691 3.638420 -0.094772
3.748288 6.772186 0.068972
9.972528 0.547524 -0.061169
0.222549 1.864911 -0.021096
2.859076 4.520412 0.067668
2.126967 0.267076 0.052645
3.088205 6.765556 0.161568
11.346378 7.745735 -0.067504
0.286740 2.626326 -0.076915
3.584941 6.198158 0.045885
6.892689 1.992660 0.131456
8.437074 7.584277 -0.057932
9.285407 1.693683 -0.025960
4.599436 0.047249 0.017295
2.642086 0.546241 0.072742
10.228231 3.669310 -0.023126
1.465106 0.306880 -0.038935
0.780263 7.843070 -0.005323
2.778957 5.049282 0.116280
5.911043 4.550704 0.118627
11.305904 5.010000 0.020872
8.746225 3.345585 0.047776
6.767668 7.086024 -0.007846
6.254629 5.702631 -0.001470
8.321009 3.442701 0.061188
7.517600 2.272565 -0.088220
4.035736 1.154997 0.042737
1.112761 2.521388 -0.127232
2.411064 2.825183 0.008581
9.392501 0.643594 -0.087065
7.613439 7.399619 -0.092636
9.566131 2.063855 0.011297
0.533892 4.320258 -0.049892
10.809836 0.529062 -0.077806
4.587020 4.416241 0.025367
11.114009 5.168123 -0.108753
7.134226 0.637965 0.123386
6.567754 7.804939 -0.016858
9.816927 1.305130 -0.022494
7.505176 2.103229 -0.098344
8.094862 5.892034 -0.044629
1.891217 2.693978 0.006275
7.253484 7.013659 -0.014841
4.277993 1.905694 0.000978
0.907053 2.511755 0.026405
1.598292 5.538456 0.149727
5.757590 6.880138 0.024167
3.150057 7.070537 0.034073
9.183874 2.304781 -0.058621
1.468782 4.247781 0.224407
0.165827 3.287108 0.127501
11.963756 5.408434 -0.008677
3.755664 1.819342 0.102652
6.117478 6.712637 -0.026340
2.520565 5.706335 0.027731
2.505585 1.399168 0.056121
4.827642 2.512272 0.053631
9.477589 2.689194 -0.100040
0.468029 7.440124 -0.054460
10.047647 3.648785 -0.000503
11.883209 4.930180 -0.027949
6.709947 7.445637 -0.145896
4.320135 3.173036 0.054116
2.807230 7.569181 0.142368
2.195412 2.336915 -0.014673
3.880029 0.101919 0.066347
10.219886 0.821055 -0.157227
0.039068 5.538525 0.063637
9.431743 3.050641 -0.119475
8.009176 6.668243 -0.103809
0.228192 4.263753 -0.022793
0.834574 5.485237 0.199898
8.820747 2.820510 -0.069261
8.078052 4.698190 -0.105986
3.761912 5.584554 0.083656
10.335481 3.014227 -0.026350
2.521885 3.926216 0.169938
5.122906 6.748905 -0.057584
1.380052 7.433841 -0.101280
7.748333 2.802658 -0.025072
1.044282 0.536340 0.047540
2.153784 6.737267 0.063522
9.196203 3.578085 0.057089
6.002864 7.754345 -0.085887
7.942411 6.102515 -0.068915
8.807438 2.944541 -0.031364
7.278611 6.802391 0.074841
2.373118 4.382397 0.075562
8.381937 5.707214 -0.045969
1.391254 7.079554 -0.056089
3.237748 4.641413 0.114917
5.377645 7.578976 0.113889
1.373292 3.186864 0.236520
1.271888 3.030087 0.008007
7.827240 5.121703 0.125492
8.903490 3.239666 -0.117641
4.448290 5.659616 0.003893
4.678253 4.249923 -0.007728
2.491212 5.939140 0.003236
6.259534 6.606303 -0.041309
6.964422 4.539603 -0.027577
11.203278 7.315266 -0.055327
0.486961 6.248964 -0.027987
10.904700 6.856462 0.002416
11.887772 0.155880 -0.058890
4.155408 0.123506 0.047295
8.709695 5.076939 0.096376
9.898136 2.663564 -0.014147
7.813518 6.983627 0.010570
3.466855 3.134108 0.045287
7.474879 5.951076 0.010097
10.522905 1.968378 -0.001216
1.284570 5.035913 -0.040648
5.759679 7.204938 0.124549
0.271745 6.896776 0.126253
10.139522 2.931551 0.048469
9.341881 3.854434 -0.068923
0.552405 4.283278 -0.116235
8.949736 2.756247 -0.057813
8.298685 3.871589 0.000857
1.515015 7.716430 0.091036
6.302021 7.038521 0.012442
8.272318 2.516317 -0.034450
4.025826 5.471399 0.166821
6.046780 7.587548 -0.021761
11.711187 2.896979 0.031199
7.628182 6.787919 0.073102
6.023920 6.378854 -0.073141
0.791969 7.093974 0.035053
1.454057 0.674908 -0.018533
10.209241 7.383640 -0.117106
8.911183 7.848285 -0.167863
10.021138 1.930802 -0.163244
6.937027 5.064541 0.048085
6.912113 0.720834 -0.014373
6.366929 4.818676 0.047091
8.820980 5.668359 -0.104495
3.962526 5.964817 0.022540
5.960472 6.854887 0.010734
5.637214 2.347447 -0.084652
7.939647 0.927558 -0.134326
2.594529 6.535755 0.075242
0.300891 0.205649 0.015225
1.062725 1.864927 -0.054828
2.150907 1.895131 0.027629
10.286936 6.201143 0.008260
8.602044 3.536722 0.126450
8.999652 6.702260 -0.094021
5.330747 5.343224 0.088329
1.233254 6.743161 0.187365
5.583278 6.288796 0.042275
10.355842 7.040538 0.070574
6.109859 2.208987 -0.172891
7.582043 2.843672 0.116663
4.490321 5.027385 0.045597
1.801040 4.663253 -0.116447
7.519543 6.222085 0.065450
5.819731 6.468778 0.116280
4.147514 2.439754 0.142217
3.102235 0.967796 0.139007
8.351896 5.930524 -0.014566
3.814938 5.497473 -0.011032
6.911598 2.215188 -0.020079
3.116898 0.455597 0.042337
9.040939 0.185029 0.006641
4.499399 1.985981 0.008621
5.741927 2.188162 0.038871
11.130952 1.658887 0.018115
8.620582 0.404475 0.008084
8.835981 1.363006 0.158465
4.072102 2.799418 0.216816
10.084049 0.738102 -0.131312
4.629102 1.652600 0.001169
11.859670 3.504581 -0.155033
10.750795 6.784630 -0.139531
7.909496 6.972319 0.039404
9.977567 3.240414 -0.117765
6.528521 1.007343 -0.059238
8.797036 2.153580 -0.041944
1.497292 5.398458 0.088706
11.863028 3.258645 -0.080201
9.602535 4.562588 -0.062576
1.709309 5.894568 0.101366
2.911373 5.270398 0.080650
6.899665 6.875645 0.052115
9.153017 0.685237 0.047294
1.786245 2.375176 -0.049078
11.527652 0.272731 -0.035160
4.151296 4.169027 -0.002338
11.939694 4.917643 0.028425
9.031029 2.031677 0.039082
5.826262 0.443937 -0.048151
4.352406 3.710784 0.152075
1.157862 1.341606 -0.071830
1.054806 1.556305 0.110100
7.553439 3.050607 0.019776
9.282251 7.560545 -0.097899
10.890505 2.880281 -0.137145
4.379872 5.673939 0.022902
11.251563 2.979746 -0.053120
3.562502 3.242067 -0.008753
11.278593 1.120858 -0.007060
11.026025 1.476744 -0.160253
1.859986 6.165095 0.030936
10.329528 3.434029 -0.044102
8.444293 2.282260 -0.161301
8.429253 7.896483 0.010586
10.084949 7.025263 -0.140701
6.439969 2.114611 -0.172134
6.081216 3.474113 -0.018126
4.404358 4.535452 0.028714
10.383002 1.329221 0.026429
10.813179 3.418149 -0.086966
1.926538 2.272230 0.148459
9.266030 6.482500 0.084139
3.306136 0.756403 0.132154
2.206288 7.931399 0.140468
2.366501 1.884456 0.065780
6.879667 2.649217 -0.027272
3.357242 0.604896 0.097384
2.907346 7.302816 0.119758
1.181952 6.624867 0.039191
3.896544 0.540979 0.028284
9.289125 4.225405 -0.153139
0.259184 3.124587 0.056057
5.791923 4.848542 0.062045
7.233675 2.687268 -0.092748
0.595430 7.650104 0.017234
3.527667 1.743990 0.103925
10.877714 6.561607 -0.057792
11.932043 2.141264 0.009477
10.203688 5.195705 0.016716
2.036377 3.422358 -0.082519
9.169881 4.206997 -0.051297
5.410389 4.176189 0.077267
2.047732 5.007821 0.106424
5.770619 0.543991 0.145853
11.074566 0.475566 -0.201787
10.527032 7.767053 -0.051491
4.698420 2.024465 0.101705
0.760226 2.854200 0.109173
10.806639 1.917808 0.084530
11.835425 5.165255 -0.126204
6.136731 7.871278 -0.000138
2.703359 3.221712 -0.041500
6.525514 2.570656 0.087508
8.355283 2.795953 -0.116932
5.786487 0.216827 0.127860
4.230579 0.718823 0.121165
2.973412 0.384384 0.082471
3.562321 2.591292 -0.124463
0.597848 7.874982 -0.044105
3.060890 1.129994 0.103767
11.437562 4.391215 -0.163910
0.097171 1.657341 -0.019436
8.729621 0.294254 -0.027843
9.466956 6.696048 0.037804
4.856520 1.018007 0.066468
7.142889 1.081056 0.033273
2.650590 6.537695 0.006382
8.016543 1.949934 -0.005281
8.493909 1.591288 -0.025729
8.814820 7.545513 0.036326
5.900721 1.554661 0.018568
11.644991 6.653206 0.029281
10.395786 2.454108 -0.179191
6.869496 4.525293 0.111572
8.188352 2.488045 -0.022604
3.297436 2.713711 0.135098
11.323535 7.458273 -0.045055
7.741707 7.261978 0.067290
10.739089 1.398674 0.069849
3.463493 5.795443 0.002832
11.788575 1.116476 -0.046197
1.265327 2.394729 0.008278
6.364189 0.566579 0.041995
1.325669 5.183084 -0.105253
2.277454 5.811857 0.023430
9.169808 5.970560 -0.047365
0.793140 6.195029 -0.049102
4.592524 3.158243 0.030299
2.299867 1.417562 -0.084712
10.203257 0.034452 0.067572
0.988506 3.521883 0.052015
4.038923 7.466321 0.196285
10.274925 3.590021 -0.112868
8.242967 4.926602 -0.102588
8.439938 7.333923 0.008086
11.894260 6.900206 -0.184409
0.281048 5.918308 0.020843
7.977819 4.738706 -0.060685
8.939491 1.854545 -0.050120
8.978087 5.989548 -0.004325
8.568258 3.341019 -0.013154
0.866550 5.650221 0.161458
1.007261 1.787156 0.066850
9.273624 7.525551 -0.131715
7.341245 1.312389 0.084924
3.152089 6.326090 -0.060980
0.111485 7.122829 0.006309
6.401496 1.216261 -0.073908
1.085085 6.920340 -0.047198
8.980581 5.154923 0.079283
4.088663 4.828433 0.003057
9.689743 2.032208 -0.087247
1.146669 2.627015 -0.025137
5.927713 1.880789 0.007266
1.197180 3.531118 0.134101
9.364321 5.183043 -0.124499
6.719797 5.829755 -0.078750
2.816251 5.645873 0.088006
11.554236 2.774537 -0.178843
8.183940 2.689130 -0.038493
4.036105 6.107803 0.136361
10.263989 7.790920 -0.044029
4.559788 1.772956 0.007396
11.309580 3.302430 -0.108357
3.565389 2.209209 -0.026122
11.812334 7.797022 -0.099886
0.749797 0.131542 0.022303
8.814850 7.139031 0.076281
3.496811 6.139730 0.122297
5.086826 2.654854 -0.003339
7.634225 5.443636 -0.056824
0.549961 2.957199 0.062413
2.682475 5.094706 -0.103050
1.248202 3.402816 -0.014297
8.875747 7.320181 -0.049151
2.654900 3.660894 -0.047770
5.979989 6.498486 -0.048289
3.942161 4.610105 0.073711
2.833401 2.979559 -0.089276
11.222134 7.733889 -0.124924
6.089934 1.563082 -0.022789
7.805642 7.265364 0.003345
8.452596 7.850373 -0.124344
9.853815 6.792659 0.045760
3.158631 4.883225 0.019029
0.943137 4.979501 -0.006489
5.606949 7.427452 0.006075
2.040074 3.464914 -0.021258
0.245183 6.594938 -0.077124
11.036212 6.197001 0.038228
7.519030 6.869480 0.018021
4.972377 3.525636 0.032255
1.637341 5.220307 0.104210
9.134983 0.738133 -0.085572
6.396063 0.576697 0.072278
2.091537 0.859757 0.033855
11.787262 5.882940 -0.125290
11.409777 2.840942 0.005367
11.125693 7.266920 -0.171451
9.919791 0.633747 0.009337
6.379008 1.379231 -0.047276
3.605407 6.690324 0.076467
7.820499 3.347621 0.104142
1.816182 1.762863 0.072503
7.401752 6.247832 -0.044045
0.792809 1.875478 0.007710
0.163023 7.787634 -0.031403
8.586194 2.199429 -0.112633
4.112529 6.868330 -0.043177
8.367012 3.836780 -0.012623
9.359362 7.482471 0.008083
10.023644 2.370089 -0.183177
7.389952 7.400920 -0.002535
10.160847 2.421868 -0.006096
7.906437 3.585370 0.001362
11.127365 5.060671 -0.133565
10.762197 4.436001 0.029254
0.519382 5.366690 -0.091855
3.211771 5.567901 0.092500
4.665913 2.142467 0.167328
3.026389 0.070033 -0.120446
2.122696 5.787903 0.051125
10.481681 4.802142 -0.025443
0.300018 4.507113 0.017017
2.182313 3.965690 -0.028902
9.122917 7.427370 -0.055716
2.679730 2.376081 -0.072910
3.100237 7.296135 0.050708
11.609660 1.343449 -0.014660
9.151825 5.556044 -0.084195
5.383981 7.532100 -0.038137
1.634422 1.233699 -0.013918
3.228559 6.161111 0.040204
11.773957 2.184419 -0.052460
9.492937 0.472258 -0.045931
0.838546 3.449687 0.014531
8.482113 5.591791 -0.122758
4.512368 2.267573 -0.173204
8.638855 7.602090 0.025602
3.545353 0.018149 0.153654
1.561980 2.142247 -0.089504
0.236399 2.732871 -0.055071
3.548229 2.967072 0.065464
10.324129 2.397453 0.025549
10.694770 0.170948 -0.002031
8.198067 1.679637 0.085865
8.974636 2.093124 -0.033537
2.335545 5.379917 0.065062
4.251146 3.018505 0.074212
10.790799 5.779052 -0.087702
11.835362 3.539899 0.036624
5.316658 2.725722 0.083675
9.311696 1.271812 0.041505
11.201361 1.826736 -0.086995
11.964027 7.211969 0.023207
3.549074 3.641184 -0.040983
7.848848 2.508180 0.023181
4.679755 1.746741 -0.164980
5.581003 7.012896 -0.047506
5.543023 5.633548 0.089819
3.342184 5.555823 0.005467
0.228780 6.436868 0.010297
9.198378 1.930441 -0.160602
8.351610 5.848221 0.103486
10.087165 0.571425 -0.000161
1.839650 5.319214 0.023605
2.844432 2.577772 0.070020
7.153560 5.294714 0.031572
11.239521 1.812958 0.054082
5.661295 2.828029 0.047281
2.409929 5.361888 -0.082137
7.136286 7.516000 -0.013826
11.490055 2.725640 0.042883
10.416906 1.353060 -0.006131
10.787480 0.996813 -0.087012
4.926265 5.370813 0.085851
3.147537 7.154628 0.048734
10.446998 0.135728 -0.003315
9.457045 2.759278 -0.162067
10.216527 1.351534 -0.118774
4.694723 7.637026 0.091829
3.433896 1.058313 0.023617
2.883595 0.548845 0.065250
10.447444 6.144235 0.102244
11.033068 7.991740 -0.080142
4.405971 6.190428 0.060008
10.494497 0.916849 -0.095089
4.576713 3.262949 -0.008544
5.374906 4.160209 0.028023
6.797778 7.189890 -0.101114
2.655613 6.026703 -0.128900
3.209394 0.480185 0.146762
3.199814 3.624316 0.031827
3.120847 6.229149 0.127329
6.186250 4.345284 0.032524
1.206022 5.334129 0.026878
9.364553 7.739259 0.016059
2.097578 7.829165 0.085388
5.327605 6.695130 -0.059689
7.701869 4.575403 0.089527
1.656285 2.460644 -0.053089
4.910304 1.277512 0.054126
6.757942 1.339871 0.213076
6.603702 5.123981 0.022309
10.710288 6.183289 0.076894
9.420105 6.869556 -0.064405
1.450916 7.312346 0.067492
9.998683 2.302890 -0.041738
6.597523 2.675789 0.048820
8.137960 1.569829 -0.080399
1.919715 4.351385 -0.044931
5.663769 7.573077 0.056733
8.398990 6.060747 -0.140846
9.569432 3.494454 -0.105532
9.669737 1.272328 0.009053
2.605577 6.742373 -0.012789
9.992709 7.169782 -0.115057
6.821127 6.144548 -0.074374
8.024254 2.337148 0.000214
10.218628 3.121975 -0.076859
4.865616 4.668528 0.050350
11.035650 7.343030 -0.070356
10.575060 1.942407 0.092422
9.692939 3.357713 -0.075507
4.559298 0.481369 -0.112364
6.338481 0.024878 0.029714
2.077425 1.946925 0.029256
9.112490 6.472086 -0.019768
10.691216 5.402856 -0.178511
1.930133 3.814029 0.115405
8.936966 3.276764 -0.031282
8.330047 2.119307 -0.020654
0.438257 6.128579 -0.122631
11.003119 3.901803 -0.018511
5.749779 0.560208 0.024343
3.230150 5.017444 0.145616
0.362239 7.945189 -0.033033
9.382133 0.582488 -0.132879
4.053513 7.976701 0.052119
6.161927 0.796015 -0.047726
2.336871 2.461676 0.064766
7.283976 7.811793 -0.080924
4.766824 7.776897 0.029315
9.679205 1.477092 -0.058842
7.995971 5.762545 -0.013334
8.660748 4.901193 -0.063746
3.013817 3.184265 -0.024282
0.766220 6.269386 0.002624
10.559512 5.076941 -0.097109
11.227803 1.800893 -0.044731
7.722026 3.921399 -0.026363
11.061125 5.676078 -0.230527
8.475534 4.972264 -0.024952
7.269865 4.343765 0.111754
5.028606 5.900346 0.060965
4.267330 1.078077 0.088249
5.876011 0.343391 0.063127
2.669257 0.262725 -0.000474
5.132138 4.964376 -0.067100
6.091698 3.475640 0.087417
0.374547 6.686487 0.081481
4.723177 7.772055 0.083617
3.413471 0.895971 0.074042
7.609958 3.030995 0.027667
9.741357 3.356032 -0.044245
