ply
format ascii 1.0
element vertex 800
property float x
property float y
property float z
end_header
0.00000 0.00000 0.00000
0.10000 0.00000 0.00001
0.20000 0.00000 0.00000
0.30000 0.00000 0.00000
0.40000 0.00000 0.00001
0.50000 0.00000 0.00001
0.60000 0.00000 0.00000
0.70000 0.00000 0.00000
0.80000 0.00000 0.00000
0.90000 0.00000 0.00001
1.00000 0.00000 0.00001
1.10000 0.00000 0.00001
1.20000 0.00000 0.00000
1.30000 0.00000 0.00001
1.40000 0.00000 0.00000
1.50000 0.00000 0.00001
1.60000 0.00000 0.00001
1.70000 0.00000 0.00001
1.80000 0.00000 0.00001
1.90000 0.00000 0.00000
2.00000 0.00000 0.00000
2.10000 0.00000 0.00000
2.20000 0.00000 0.00000
2.30000 0.00000 0.00001
2.40000 0.00000 0.00000
2.50000 0.00000 0.00001
2.60000 0.00000 0.00000
2.70000 0.00000 0.00001
2.80000 0.00000 0.00000
2.90000 0.00000 0.00001
3.00000 0.00000 0.00001
3.10000 0.00000 0.00001
3.20000 0.00000 0.00001
3.30000 0.00000 0.00000
3.40000 0.00000 0.00000
3.50000 0.00000 0.00001
3.60000 0.00000 0.00000
3.70000 0.00000 0.00001
3.80000 0.00000 0.00001
3.90000 0.00000 0.00000
4.00000 0.00000 0.00001
4.10000 0.00000 0.00000
4.20000 0.00000 0.00000
4.30000 0.00000 0.00001
4.40000 0.00000 0.00000
4.50000 0.00000 0.00000
4.60000 0.00000 0.00001
4.70000 0.00000 0.00000
4.80000 0.00000 0.00001
4.90000 0.00000 0.00001
5.00000 0.00000 0.00000
5.10000 0.00000 0.00001
5.20000 0.00000 0.00001
5.30000 0.00000 0.00001
5.40000 0.00000 0.00000
5.50000 0.00000 0.00000
5.60000 0.00000 0.00001
5.70000 0.00000 0.00001
5.80000 0.00000 0.00001
5.90000 0.00000 0.00000
6.00000 0.00000 0.00000
6.10000 0.00000 0.00000
6.20000 0.00000 0.00000
6.30000 0.00000 0.00000
6.40000 0.00000 0.00000
6.50000 0.00000 0.00000
6.60000 0.00000 0.00000
6.70000 0.00000 0.00000
6.80000 0.00000 0.00001
6.90000 0.00000 0.00000
7.00000 0.00000 0.00000
7.10000 0.00000 0.00000
7.20000 0.00000 0.00000
7.30000 0.00000 0.00001
7.40000 0.00000 0.00000
7.50000 0.00000 0.00000
7.60000 0.00000 0.00000
7.70000 0.00000 0.00000
7.80000 0.00000 0.00000
7.90000 0.00000 0.00001
8.00000 0.00000 0.00001
8.10000 0.00000 0.00001
8.20000 0.00000 0.00001
8.30000 0.00000 0.00000
8.40000 0.00000 0.00000
8.50000 0.00000 0.00000
8.60000 0.00000 0.00000
8.70000 0.00000 0.00000
8.80000 0.00000 0.00000
8.90000 0.00000 0.00000
9.00000 0.00000 0.00000
9.10000 0.00000 0.00000
9.20000 0.00000 0.00000
9.30000 0.00000 0.00000
9.40000 0.00000 0.00000
9.50000 0.00000 0.00001
9.60000 0.00000 0.00001
9.70000 0.00000 0.00000
9.80000 0.00000 0.00000
9.90000 0.00000 0.00000
10.00000 0.00000 0.00001
10.10000 0.00000 0.00000
10.20000 0.00000 0.00001
10.30000 0.00000 0.00001
10.40000 0.00000 0.00000
10.50000 0.00000 0.00000
10.60000 0.00000 0.00001
10.70000 0.00000 0.00001
10.80000 0.00000 0.00001
10.90000 0.00000 0.00000
11.00000 0.00000 0.00000
11.10000 0.00000 0.00001
11.20000 0.00000 0.00000
11.30000 0.00000 0.00000
11.40000 0.00000 0.00001
11.50000 0.00000 0.00001
11.60000 0.00000 0.00000
11.70000 0.00000 0.00001
11.80000 0.00000 0.00000
11.90000 0.00000 0.00001
12.00000 0.00000 0.00000
12.10000 0.00000 0.00000
12.20000 0.00000 0.00001
12.30000 0.00000 0.00000
12.40000 0.00000 0.00000
12.50000 0.00000 0.00001
12.60000 0.00000 0.00001
12.70000 0.00000 0.00001
12.80000 0.00000 0.00001
12.90000 0.00000 0.00001
13.00000 0.00000 0.00001
13.10000 0.00000 0.00000
13.20000 0.00000 0.00001
13.30000 0.00000 0.00000
13.40000 0.00000 0.00000
13.50000 0.00000 0.00001
13.60000 0.00000 0.00001
13.70000 0.00000 0.00001
13.80000 0.00000 0.00000
13.90000 0.00000 0.00000
14.00000 0.00000 0.00001
14.10000 0.00000 0.00000
14.20000 0.00000 0.00001
14.30000 0.00000 0.00001
14.40000 0.00000 0.00001
14.50000 0.00000 0.00000
14.60000 0.00000 0.00001
14.70000 0.00000 0.00000
14.80000 0.00000 0.00000
14.90000 0.00000 0.00001
15.00000 0.00000 0.00001
15.10000 0.00000 0.00001
15.20000 0.00000 0.00001
15.30000 0.00000 0.00001
15.40000 0.00000 0.00000
15.50000 0.00000 0.00001
15.60000 0.00000 0.00001
15.70000 0.00000 0.00001
15.80000 0.00000 0.00000
15.90000 0.00000 0.00001
16.00000 0.00000 0.00001
16.10000 0.00000 0.00000
16.20000 0.00000 0.00001
16.30000 0.00000 0.00000
16.40000 0.00000 0.00001
16.50000 0.00000 0.00001
16.60000 0.00000 0.00000
16.70000 0.00000 0.00001
16.80000 0.00000 0.00001
16.90000 0.00000 0.00000
17.00000 0.00000 0.00000
17.10000 0.00000 0.00000
17.20000 0.00000 0.00001
17.30000 0.00000 0.00001
17.40000 0.00000 0.00001
17.50000 0.00000 0.00001
17.60000 0.00000 0.00000
17.70000 0.00000 0.00000
17.80000 0.00000 0.00001
17.90000 0.00000 0.00001
18.00000 0.00000 0.00001
18.10000 0.00000 0.00000
18.20000 0.00000 0.00000
18.30000 0.00000 0.00000
18.40000 0.00000 0.00000
18.50000 0.00000 0.00001
18.60000 0.00000 0.00000
18.70000 0.00000 0.00001
18.80000 0.00000 0.00000
18.90000 0.00000 0.00000
19.00000 0.00000 0.00000
19.10000 0.00000 0.00000
19.20000 0.00000 0.00000
19.30000 0.00000 0.00000
19.40000 0.00000 0.00000
19.50000 0.00000 0.00001
19.60000 0.00000 0.00000
19.70000 0.00000 0.00000
19.80000 0.00000 0.00001
19.90000 0.00000 0.00000
20.00000 0.00000 0.00001
20.10000 0.00000 0.00001
20.20000 0.00000 0.00001
20.30000 0.00000 0.00000
20.40000 0.00000 0.00001
20.50000 0.00000 0.00000
20.60000 0.00000 0.00000
20.70000 0.00000 0.00000
20.80000 0.00000 0.00001
20.90000 0.00000 0.00001
21.00000 0.00000 0.00000
21.10000 0.00000 0.00000
21.20000 0.00000 0.00000
21.30000 0.00000 0.00001
21.40000 0.00000 0.00000
21.50000 0.00000 0.00000
21.60000 0.00000 0.00001
21.70000 0.00000 0.00000
21.80000 0.00000 0.00001
21.90000 0.00000 0.00000
22.00000 0.00000 0.00001
22.10000 0.00000 0.00000
22.20000 0.00000 0.00001
22.30000 0.00000 0.00001
22.40000 0.00000 0.00000
22.50000 0.00000 0.00000
22.60000 0.00000 0.00001
22.70000 0.00000 0.00000
22.80000 0.00000 0.00000
22.90000 0.00000 0.00000
23.00000 0.00000 0.00000
23.10000 0.00000 0.00001
23.20000 0.00000 0.00001
23.30000 0.00000 0.00001
23.40000 0.00000 0.00001
23.50000 0.00000 0.00001
23.60000 0.00000 0.00001
23.70000 0.00000 0.00000
23.80000 0.00000 0.00001
23.90000 0.00000 0.00001
24.00000 0.00000 0.00001
24.10000 0.00000 0.00001
24.20000 0.00000 0.00000
24.30000 0.00000 0.00001
24.40000 0.00000 0.00000
24.50000 0.00000 0.00000
24.60000 0.00000 0.00000
24.70000 0.00000 0.00000
24.80000 0.00000 0.00000
24.90000 0.00000 0.00001
25.00000 0.00000 0.00001
25.10000 0.00000 0.00000
25.20000 0.00000 0.00000
25.30000 0.00000 0.00000
25.40000 0.00000 0.00000
25.50000 0.00000 0.00001
25.60000 0.00000 0.00001
25.70000 0.00000 0.00001
25.80000 0.00000 0.00001
25.90000 0.00000 0.00001
26.00000 0.00000 0.00000
26.10000 0.00000 0.00000
26.20000 0.00000 0.00000
26.30000 0.00000 0.00000
26.40000 0.00000 0.00000
26.50000 0.00000 0.00000
26.60000 0.00000 0.00000
26.70000 0.00000 0.00000
26.80000 0.00000 0.00001
26.90000 0.00000 0.00001
27.00000 0.00000 0.00001
27.10000 0.00000 0.00000
27.20000 0.00000 0.00001
27.30000 0.00000 0.00000
27.40000 0.00000 0.00001
27.50000 0.00000 0.00000
27.60000 0.00000 0.00000
27.70000 0.00000 0.00000
27.80000 0.00000 0.00001
27.90000 0.00000 0.00000
28.00000 0.00000 0.00000
28.10000 0.00000 0.00001
28.20000 0.00000 0.00000
28.30000 0.00000 0.00000
28.40000 0.00000 0.00001
28.50000 0.00000 0.00001
28.60000 0.00000 0.00001
28.70000 0.00000 0.00000
28.80000 0.00000 0.00000
28.90000 0.00000 0.00001
29.00000 0.00000 0.00001
29.10000 0.00000 0.00000
29.20000 0.00000 0.00001
29.30000 0.00000 0.00000
29.40000 0.00000 0.00001
29.50000 0.00000 0.00001
29.60000 0.00000 0.00001
29.70000 0.00000 0.00000
29.80000 0.00000 0.00001
29.90000 0.00000 0.00001
30.00000 0.00000 0.00000
30.10000 0.00000 0.00001
30.20000 0.00000 0.00000
30.30000 0.00000 0.00000
30.40000 0.00000 0.00001
30.50000 0.00000 0.00000
30.60000 0.00000 0.00001
30.70000 0.00000 0.00001
30.80000 0.00000 0.00000
30.90000 0.00000 0.00001
31.00000 0.00000 0.00001
31.10000 0.00000 0.00000
31.20000 0.00000 0.00001
31.30000 0.00000 0.00001
31.40000 0.00000 0.00000
31.50000 0.00000 0.00000
31.60000 0.00000 0.00000
31.70000 0.00000 0.00000
31.80000 0.00000 0.00000
31.90000 0.00000 0.00000
32.00000 0.00000 0.00000
32.10000 0.00000 0.00001
32.20000 0.00000 0.00000
32.30000 0.00000 0.00001
32.40000 0.00000 0.00000
32.50000 0.00000 0.00000
32.60000 0.00000 0.00001
32.70000 0.00000 0.00001
32.80000 0.00000 0.00001
32.90000 0.00000 0.00000
33.00000 0.00000 0.00001
33.10000 0.00000 0.00001
33.20000 0.00000 0.00001
33.30000 0.00000 0.00001
33.40000 0.00000 0.00001
33.50000 0.00000 0.00000
33.60000 0.00000 0.00001
33.70000 0.00000 0.00000
33.80000 0.00000 0.00001
33.90000 0.00000 0.00001
34.00000 0.00000 0.00001
34.10000 0.00000 0.00001
34.20000 0.00000 0.00000
34.30000 0.00000 0.00001
34.40000 0.00000 0.00000
34.50000 0.00000 0.00000
34.60000 0.00000 0.00000
34.70000 0.00000 0.00001
34.80000 0.00000 0.00001
34.90000 0.00000 0.00000
35.00000 0.00000 0.00001
35.10000 0.00000 0.00000
35.20000 0.00000 0.00001
35.30000 0.00000 0.00000
35.40000 0.00000 0.00001
35.50000 0.00000 0.00000
35.60000 0.00000 0.00000
35.70000 0.00000 0.00001
35.80000 0.00000 0.00001
35.90000 0.00000 0.00001
36.00000 0.00000 0.00000
36.10000 0.00000 0.00001
36.20000 0.00000 0.00000
36.30000 0.00000 0.00000
36.40000 0.00000 0.00001
36.50000 0.00000 0.00000
36.60000 0.00000 0.00000
36.70000 0.00000 0.00000
36.80000 0.00000 0.00000
36.90000 0.00000 0.00001
37.00000 0.00000 0.00000
37.10000 0.00000 0.00001
37.20000 0.00000 0.00001
37.30000 0.00000 0.00000
37.40000 0.00000 0.00000
37.50000 0.00000 0.00001
37.60000 0.00000 0.00000
37.70000 0.00000 0.00000
37.80000 0.00000 0.00001
37.90000 0.00000 0.00000
38.00000 0.00000 0.00000
38.10000 0.00000 0.00001
38.20000 0.00000 0.00000
38.30000 0.00000 0.00000
38.40000 0.00000 0.00001
38.50000 0.00000 0.00000
38.60000 0.00000 0.00001
38.70000 0.00000 0.00000
38.80000 0.00000 0.00001
38.90000 0.00000 0.00000
39.00000 0.00000 0.00001
39.10000 0.00000 0.00000
39.20000 0.00000 0.00001
39.30000 0.00000 0.00000
39.40000 0.00000 0.00000
39.50000 0.00000 0.00001
39.60000 0.00000 0.00000
39.70000 0.00000 0.00000
39.80000 0.00000 0.00000
39.90000 0.00000 0.00001
40.00000 0.00000 0.00000
40.10000 0.00000 0.00001
40.20000 0.00000 0.00001
40.30000 0.00000 0.00000
40.40000 0.00000 0.00000
40.50000 0.00000 0.00000
40.60000 0.00000 0.00000
40.70000 0.00000 0.00001
40.80000 0.00000 0.00000
40.90000 0.00000 0.00001
41.00000 0.00000 0.00001
41.10000 0.00000 0.00001
41.20000 0.00000 0.00000
41.30000 0.00000 0.00000
41.40000 0.00000 0.00000
41.50000 0.00000 0.00000
41.60000 0.00000 0.00001
41.70000 0.00000 0.00000
41.80000 0.00000 0.00000
41.90000 0.00000 0.00001
42.00000 0.00000 0.00000
42.10000 0.00000 0.00001
42.20000 0.00000 0.00001
42.30000 0.00000 0.00000
42.40000 0.00000 0.00001
42.50000 0.00000 0.00000
42.60000 0.00000 0.00001
42.70000 0.00000 0.00000
42.80000 0.00000 0.00001
42.90000 0.00000 0.00000
43.00000 0.00000 0.00001
43.10000 0.00000 0.00001
43.20000 0.00000 0.00000
43.30000 0.00000 0.00000
43.40000 0.00000 0.00001
43.50000 0.00000 0.00001
43.60000 0.00000 0.00000
43.70000 0.00000 0.00000
43.80000 0.00000 0.00001
43.90000 0.00000 0.00001
44.00000 0.00000 0.00000
44.10000 0.00000 0.00001
44.20000 0.00000 0.00000
44.30000 0.00000 0.00000
44.40000 0.00000 0.00000
44.50000 0.00000 0.00000
44.60000 0.00000 0.00001
44.70000 0.00000 0.00001
44.80000 0.00000 0.00001
44.90000 0.00000 0.00001
45.00000 0.00000 0.00001
45.10000 0.00000 0.00001
45.20000 0.00000 0.00001
45.30000 0.00000 0.00000
45.40000 0.00000 0.00001
45.50000 0.00000 0.00001
45.60000 0.00000 0.00001
45.70000 0.00000 0.00000
45.80000 0.00000 0.00000
45.90000 0.00000 0.00001
46.00000 0.00000 0.00001
46.10000 0.00000 0.00000
46.20000 0.00000 0.00000
46.30000 0.00000 0.00000
46.40000 0.00000 0.00001
46.50000 0.00000 0.00001
46.60000 0.00000 0.00001
46.70000 0.00000 0.00001
46.80000 0.00000 0.00001
46.90000 0.00000 0.00000
47.00000 0.00000 0.00001
47.10000 0.00000 0.00001
47.20000 0.00000 0.00000
47.30000 0.00000 0.00001
47.40000 0.00000 0.00001
47.50000 0.00000 0.00001
47.60000 0.00000 0.00001
47.70000 0.00000 0.00000
47.80000 0.00000 0.00000
47.90000 0.00000 0.00000
48.00000 0.00000 0.00000
48.10000 0.00000 0.00000
48.20000 0.00000 0.00001
48.30000 0.00000 0.00001
48.40000 0.00000 0.00001
48.50000 0.00000 0.00001
48.60000 0.00000 0.00000
48.70000 0.00000 0.00001
48.80000 0.00000 0.00000
48.90000 0.00000 0.00001
49.00000 0.00000 0.00001
49.10000 0.00000 0.00000
49.20000 0.00000 0.00000
49.30000 0.00000 0.00001
49.40000 0.00000 0.00000
49.50000 0.00000 0.00001
49.60000 0.00000 0.00001
49.70000 0.00000 0.00000
49.80000 0.00000 0.00001
49.90000 0.00000 0.00001
50.00000 0.00000 0.00001
50.10000 0.00000 0.00000
50.20000 0.00000 0.00001
50.30000 0.00000 0.00001
50.40000 0.00000 0.00001
50.50000 0.00000 0.00000
50.60000 0.00000 0.00000
50.70000 0.00000 0.00000
50.80000 0.00000 0.00000
50.90000 0.00000 0.00001
51.00000 0.00000 0.00000
51.10000 0.00000 0.00001
51.20000 0.00000 0.00001
51.30000 0.00000 0.00000
51.40000 0.00000 0.00001
51.50000 0.00000 0.00001
51.60000 0.00000 0.00000
51.70000 0.00000 0.00001
51.80000 0.00000 0.00001
51.90000 0.00000 0.00001
52.00000 0.00000 0.00001
52.10000 0.00000 0.00000
52.20000 0.00000 0.00000
52.30000 0.00000 0.00001
52.40000 0.00000 0.00000
52.50000 0.00000 0.00001
52.60000 0.00000 0.00001
52.70000 0.00000 0.00000
52.80000 0.00000 0.00001
52.90000 0.00000 0.00000
53.00000 0.00000 0.00000
53.10000 0.00000 0.00001
53.20000 0.00000 0.00001
53.30000 0.00000 0.00000
53.40000 0.00000 0.00000
53.50000 0.00000 0.00000
53.60000 0.00000 0.00000
53.70000 0.00000 0.00001
53.80000 0.00000 0.00000
53.90000 0.00000 0.00000
54.00000 0.00000 0.00000
54.10000 0.00000 0.00001
54.20000 0.00000 0.00001
54.30000 0.00000 0.00000
54.40000 0.00000 0.00001
54.50000 0.00000 0.00000
54.60000 0.00000 0.00001
54.70000 0.00000 0.00000
54.80000 0.00000 0.00000
54.90000 0.00000 0.00000
55.00000 0.00000 0.00000
55.10000 0.00000 0.00001
55.20000 0.00000 0.00001
55.30000 0.00000 0.00001
55.40000 0.00000 0.00001
55.50000 0.00000 0.00001
55.60000 0.00000 0.00000
55.70000 0.00000 0.00000
55.80000 0.00000 0.00000
55.90000 0.00000 0.00001
56.00000 0.00000 0.00000
56.10000 0.00000 0.00000
56.20000 0.00000 0.00000
56.30000 0.00000 0.00001
56.40000 0.00000 0.00001
56.50000 0.00000 0.00000
56.60000 0.00000 0.00001
56.70000 0.00000 0.00001
56.80000 0.00000 0.00001
56.90000 0.00000 0.00000
57.00000 0.00000 0.00000
57.10000 0.00000 0.00000
57.20000 0.00000 0.00001
57.30000 0.00000 0.00000
57.40000 0.00000 0.00001
57.50000 0.00000 0.00000
57.60000 0.00000 0.00000
57.70000 0.00000 0.00001
57.80000 0.00000 0.00000
57.90000 0.00000 0.00001
58.00000 0.00000 0.00000
58.10000 0.00000 0.00001
58.20000 0.00000 0.00000
58.30000 0.00000 0.00001
58.40000 0.00000 0.00000
58.50000 0.00000 0.00001
58.60000 0.00000 0.00001
58.70000 0.00000 0.00000
58.80000 0.00000 0.00000
58.90000 0.00000 0.00000
59.00000 0.00000 0.00000
59.10000 0.00000 0.00000
59.20000 0.00000 0.00001
59.30000 0.00000 0.00001
59.40000 0.00000 0.00001
59.50000 0.00000 0.00000
59.60000 0.00000 0.00001
59.70000 0.00000 0.00001
59.80000 0.00000 0.00001
59.90000 0.00000 0.00000
60.00000 0.00000 0.00001
60.10000 0.00000 0.00000
60.20000 0.00000 0.00000
60.30000 0.00000 0.00000
60.40000 0.00000 0.00001
60.50000 0.00000 0.00001
60.60000 0.00000 0.00000
60.70000 0.00000 0.00001
60.80000 0.00000 0.00001
60.90000 0.00000 0.00001
61.00000 0.00000 0.00001
61.10000 0.00000 0.00000
61.20000 0.00000 0.00001
61.30000 0.00000 0.00000
61.40000 0.00000 0.00000
61.50000 0.00000 0.00000
61.60000 0.00000 0.00001
61.70000 0.00000 0.00000
61.80000 0.00000 0.00001
61.90000 0.00000 0.00000
62.00000 0.00000 0.00001
62.10000 0.00000 0.00000
62.20000 0.00000 0.00000
62.30000 0.00000 0.00000
62.40000 0.00000 0.00001
62.50000 0.00000 0.00001
62.60000 0.00000 0.00001
62.70000 0.00000 0.00000
62.80000 0.00000 0.00000
62.90000 0.00000 0.00000
63.00000 0.00000 0.00000
63.10000 0.00000 0.00001
63.20000 0.00000 0.00001
63.30000 0.00000 0.00000
63.40000 0.00000 0.00000
63.50000 0.00000 0.00000
63.60000 0.00000 0.00000
63.70000 0.00000 0.00001
63.80000 0.00000 0.00001
63.90000 0.00000 0.00000
64.00000 0.00000 0.00000
64.10000 0.00000 0.00000
64.20000 0.00000 0.00000
64.30000 0.00000 0.00000
64.40000 0.00000 0.00001
64.50000 0.00000 0.00001
64.60000 0.00000 0.00001
64.70000 0.00000 0.00000
64.80000 0.00000 0.00001
64.90000 0.00000 0.00000
65.00000 0.00000 0.00000
65.10000 0.00000 0.00000
65.20000 0.00000 0.00000
65.30000 0.00000 0.00001
65.40000 0.00000 0.00001
65.50000 0.00000 0.00000
65.60000 0.00000 0.00001
65.70000 0.00000 0.00000
65.80000 0.00000 0.00000
65.90000 0.00000 0.00000
66.00000 0.00000 0.00001
66.10000 0.00000 0.00000
66.20000 0.00000 0.00000
66.30000 0.00000 0.00001
66.40000 0.00000 0.00000
66.50000 0.00000 0.00000
66.60000 0.00000 0.00001
66.70000 0.00000 0.00001
66.80000 0.00000 0.00000
66.90000 0.00000 0.00001
67.00000 0.00000 0.00000
67.10000 0.00000 0.00001
67.20000 0.00000 0.00001
67.30000 0.00000 0.00001
67.40000 0.00000 0.00000
67.50000 0.00000 0.00001
67.60000 0.00000 0.00000
67.70000 0.00000 0.00000
67.80000 0.00000 0.00001
67.90000 0.00000 0.00000
68.00000 0.00000 0.00000
68.10000 0.00000 0.00001
68.20000 0.00000 0.00001
68.30000 0.00000 0.00000
68.40000 0.00000 0.00000
68.50000 0.00000 0.00000
68.60000 0.00000 0.00000
68.70000 0.00000 0.00001
68.80000 0.00000 0.00001
68.90000 0.00000 0.00000
69.00000 0.00000 0.00000
69.10000 0.00000 0.00001
69.20000 0.00000 0.00000
69.30000 0.00000 0.00000
69.40000 0.00000 0.00000
69.50000 0.00000 0.00000
69.60000 0.00000 0.00001
69.70000 0.00000 0.00000
69.80000 0.00000 0.00001
69.90000 0.00000 0.00000
70.00000 0.00000 0.00000
70.10000 0.00000 0.00000
70.20000 0.00000 0.00001
70.30000 0.00000 0.00000
70.40000 0.00000 0.00000
70.50000 0.00000 0.00000
70.60000 0.00000 0.00000
70.70000 0.00000 0.00001
70.80000 0.00000 0.00001
70.90000 0.00000 0.00001
71.00000 0.00000 0.00001
71.10000 0.00000 0.00001
71.20000 0.00000 0.00001
71.30000 0.00000 0.00001
71.40000 0.00000 0.00000
71.50000 0.00000 0.00001
71.60000 0.00000 0.00000
71.70000 0.00000 0.00001
71.80000 0.00000 0.00001
71.90000 0.00000 0.00000
72.00000 0.00000 0.00000
72.10000 0.00000 0.00000
72.20000 0.00000 0.00000
72.30000 0.00000 0.00001
72.40000 0.00000 0.00001
72.50000 0.00000 0.00000
72.60000 0.00000 0.00001
72.70000 0.00000 0.00001
72.80000 0.00000 0.00001
72.90000 0.00000 0.00001
73.00000 0.00000 0.00001
73.10000 0.00000 0.00000
73.20000 0.00000 0.00001
73.30000 0.00000 0.00000
73.40000 0.00000 0.00001
73.50000 0.00000 0.00001
73.60000 0.00000 0.00000
73.70000 0.00000 0.00001
73.80000 0.00000 0.00000
73.90000 0.00000 0.00001
74.00000 0.00000 0.00001
74.10000 0.00000 0.00000
74.20000 0.00000 0.00001
74.30000 0.00000 0.00001
74.40000 0.00000 0.00000
74.50000 0.00000 0.00001
74.60000 0.00000 0.00001
74.70000 0.00000 0.00001
74.80000 0.00000 0.00001
74.90000 0.00000 0.00000
75.00000 0.00000 0.00001
75.10000 0.00000 0.00001
75.20000 0.00000 0.00001
75.30000 0.00000 0.00001
75.40000 0.00000 0.00000
75.50000 0.00000 0.00001
75.60000 0.00000 0.00001
75.70000 0.00000 0.00000
75.80000 0.00000 0.00000
75.90000 0.00000 0.00000
76.00000 0.00000 0.00000
76.10000 0.00000 0.00000
76.20000 0.00000 0.00000
76.30000 0.00000 0.00001
76.40000 0.00000 0.00000
76.50000 0.00000 0.00001
76.60000 0.00000 0.00000
76.70000 0.00000 0.00000
76.80000 0.00000 0.00001
76.90000 0.00000 0.00001
77.00000 0.00000 0.00001
77.10000 0.00000 0.00000
77.20000 0.00000 0.00000
77.30000 0.00000 0.00001
77.40000 0.00000 0.00001
77.50000 0.00000 0.00001
77.60000 0.00000 0.00001
77.70000 0.00000 0.00001
77.80000 0.00000 0.00001
77.90000 0.00000 0.00000
78.00000 0.00000 0.00001
78.10000 0.00000 0.00000
78.20000 0.00000 0.00000
78.30000 0.00000 0.00000
78.40000 0.00000 0.00000
78.50000 0.00000 0.00000
78.60000 0.00000 0.00001
78.70000 0.00000 0.00001
78.80000 0.00000 0.00001
78.90000 0.00000 0.00001
79.00000 0.00000 0.00000
79.10000 0.00000 0.00001
79.20000 0.00000 0.00001
79.30000 0.00000 0.00001
79.40000 0.00000 0.00001
79.50000 0.00000 0.00000
79.60000 0.00000 0.00001
79.70000 0.00000 0.00000
79.80000 0.00000 0.00000
79.90000 0.00000 0.00001
